<svg width="30" height="23" viewBox="0 0 30 23" fill="none" xmlns="http://www.w3.org/2000/svg">
<path d="M28.5 12.5459C29.3284 12.5459 30 11.8743 30 11.0459C30 10.2175 29.3284 9.5459 28.5 9.5459L28.5 11.0459L28.5 12.5459ZM0.439341 9.98524C-0.146446 10.571 -0.146446 11.5208 0.43934 12.1066L9.98528 21.6525C10.5711 22.2383 11.5208 22.2383 12.1066 21.6525C12.6924 21.0667 12.6924 20.117 12.1066 19.5312L3.62132 11.0459L12.1066 2.56061C12.6924 1.97483 12.6924 1.02508 12.1066 0.439294C11.5208 -0.146493 10.5711 -0.146493 9.98528 0.439294L0.439341 9.98524ZM28.5 11.0459L28.5 9.5459L1.5 9.5459L1.5 11.0459L1.5 12.5459L28.5 12.5459L28.5 11.0459Z" fill="#1E2639"/>
</svg>
