<svg width="280" height="180" viewBox="0 0 280 180" fill="none" xmlns="http://www.w3.org/2000/svg">
<g filter="url(#filter0_d_1098_11938)">
<g clip-path="url(#clip0_1098_11938)">
<rect width="74.1667" height="118.228" transform="translate(99.9167 32.1857)" fill="#FBFBFB"/>
<rect x="99.9167" y="32.1857" width="74.1667" height="118.228" fill="#FBFBFB"/>
<path d="M111.591 40.3922C111.559 40.3922 111.527 40.3922 111.527 40.3922C111.399 40.3589 111.368 40.2588 111.336 40.1587C111.336 40.1253 111.336 40.092 111.336 40.0586C111.336 39.4581 111.336 38.8577 111.336 38.2572C111.336 38.1905 111.336 38.1237 111.368 38.057C111.399 37.9569 111.463 37.9236 111.559 37.9236C111.655 37.9236 111.75 37.9903 111.782 38.0904C111.814 38.1905 111.814 38.2905 111.814 38.3906C111.814 38.5574 111.814 38.7242 111.814 38.8577C111.814 38.891 111.814 38.9244 111.878 38.9244C112.165 38.9244 112.484 38.9244 112.771 38.9244C112.835 38.9244 112.835 38.9244 112.835 38.8577C112.835 38.6575 112.835 38.4573 112.835 38.2572C112.835 38.1905 112.835 38.1237 112.867 38.057C112.899 37.9569 112.994 37.9236 113.09 37.9236C113.154 37.9236 113.218 37.9903 113.25 38.0904C113.282 38.1905 113.282 38.2905 113.282 38.3906C113.282 38.6241 113.282 38.891 113.282 39.1245C113.282 39.4581 113.282 39.7584 113.282 40.092C113.282 40.1587 113.282 40.2254 113.25 40.2921C113.218 40.3922 113.154 40.4256 113.058 40.4256C112.963 40.4256 112.899 40.3922 112.867 40.2921C112.835 40.1921 112.835 40.092 112.835 39.9919C112.835 39.8918 112.835 39.7584 112.835 39.6583C112.835 39.5582 112.835 39.4581 112.835 39.3581C112.835 39.3247 112.803 39.3247 112.803 39.3247C112.644 39.3247 112.484 39.3247 112.325 39.3247C112.165 39.3247 112.006 39.3247 111.878 39.3247C111.846 39.3247 111.814 39.3247 111.814 39.3581C111.814 39.4915 111.814 39.6249 111.814 39.7584C111.814 39.8918 111.814 40.0253 111.814 40.1587C111.782 40.2588 111.718 40.3589 111.591 40.3922Z" fill="#C2C2C2"/>
<path d="M107.348 38.1571C107.348 38.2239 107.348 38.2572 107.348 38.3239C107.348 38.3573 107.348 38.3573 107.316 38.3573C107.125 38.4907 107.029 38.6909 106.997 38.9244C106.933 39.1913 106.965 39.4582 107.125 39.725C107.221 39.8918 107.38 39.9919 107.571 40.0253C107.922 40.0586 108.178 39.8585 108.241 39.5582C108.305 39.3247 108.337 39.0578 108.241 38.8243C108.209 38.6909 108.114 38.5908 108.018 38.4907C107.954 38.424 107.922 38.3573 107.922 38.2906C107.922 38.2239 107.922 38.1238 107.922 38.0571C107.922 37.9903 107.922 37.9903 107.986 38.0237C108.178 38.0571 108.337 38.1571 108.465 38.3239C108.624 38.5241 108.688 38.7576 108.72 38.9911C108.752 39.2246 108.72 39.4582 108.656 39.6917C108.497 40.092 108.241 40.3255 107.827 40.3922C107.571 40.4256 107.316 40.4256 107.093 40.3255C106.774 40.1921 106.614 39.9252 106.519 39.625C106.487 39.1913 106.487 38.8577 106.646 38.5241C106.742 38.3573 106.838 38.1905 106.997 38.0571C107.093 37.9903 107.189 37.957 107.284 37.957C107.316 37.957 107.348 37.957 107.348 37.9903C107.348 38.0571 107.348 38.0904 107.348 38.1571Z" fill="#C2C2C2"/>
<path d="M105.402 40.3923C105.37 40.3923 105.307 40.3923 105.275 40.3923C105.083 40.3923 104.892 40.3255 104.732 40.2255C104.573 40.1254 104.477 39.9586 104.445 39.7584C104.413 39.625 104.509 39.5249 104.605 39.4915C104.669 39.4915 104.7 39.4915 104.732 39.5249C104.764 39.5583 104.796 39.5916 104.796 39.625C104.828 39.6917 104.86 39.7584 104.892 39.8251C104.956 39.9586 105.051 40.0253 105.211 40.0587C105.338 40.092 105.498 40.0587 105.626 39.9919C105.689 39.9586 105.753 39.8919 105.785 39.8251C105.817 39.7251 105.817 39.6583 105.753 39.5916C105.689 39.4915 105.562 39.4248 105.466 39.3915C105.307 39.3247 105.147 39.3247 104.988 39.258C104.86 39.2247 104.732 39.1579 104.637 39.0579C104.413 38.8243 104.413 38.4574 104.605 38.2239C104.669 38.1571 104.764 38.0904 104.86 38.0571C105.211 37.8903 105.562 37.8903 105.881 38.0904C106.008 38.1905 106.104 38.2906 106.136 38.4574C106.168 38.5908 106.104 38.6909 106.008 38.7243C105.945 38.7576 105.881 38.7243 105.849 38.6909C105.785 38.6242 105.753 38.5575 105.721 38.4907C105.721 38.4574 105.689 38.4574 105.689 38.424C105.626 38.3239 105.53 38.2572 105.434 38.2239C105.275 38.1905 105.147 38.2239 105.019 38.3239C104.892 38.424 104.892 38.5908 105.019 38.6909C105.115 38.7576 105.243 38.791 105.338 38.8243C105.53 38.8911 105.721 38.9244 105.881 39.0245C106.04 39.0912 106.168 39.1913 106.232 39.3581C106.327 39.625 106.264 40.0587 105.849 40.2588C105.689 40.3255 105.53 40.3589 105.402 40.3923Z" fill="#C2C2C2"/>
<path d="M113.792 39.4248C113.792 39.1913 113.792 38.9911 113.792 38.7576C113.792 38.5908 113.76 38.4574 113.792 38.2906C113.792 38.1905 113.792 38.0904 113.824 38.0237C113.856 37.9236 113.919 37.8903 114.015 37.8903C114.111 37.8903 114.175 37.9236 114.238 38.0237C114.27 38.1238 114.302 38.2239 114.302 38.2906C114.302 38.4574 114.302 38.6242 114.302 38.791C114.302 38.9911 114.302 39.1913 114.302 39.3915C114.302 39.625 114.302 39.8585 114.302 40.0587C114.302 40.1254 114.302 40.1587 114.27 40.2255C114.238 40.2922 114.175 40.3589 114.079 40.3589C113.919 40.3589 113.824 40.2922 113.824 40.092C113.792 39.8919 113.792 39.6583 113.792 39.4248Z" fill="#C2C2C2"/>
<path d="M114.015 36.6226C113.696 36.6226 113.409 36.7226 113.186 36.9228C113.09 37.0229 113.09 36.9895 113.026 36.9228C112.931 36.8561 112.962 36.8227 113.026 36.756C113.218 36.5892 113.441 36.4558 113.696 36.4224C114.207 36.3223 114.621 36.4558 115.004 36.7894C115.068 36.8227 115.068 36.8561 115.004 36.8894C114.972 36.9228 114.972 36.9228 114.94 36.9562C114.908 36.9895 114.876 36.9895 114.845 36.9562C114.813 36.9228 114.781 36.9228 114.749 36.8894C114.557 36.7226 114.366 36.6559 114.111 36.6226C114.079 36.6226 114.079 36.6226 114.047 36.6226C114.047 36.6559 114.047 36.6559 114.015 36.6226Z" fill="#C2C2C2"/>
<path d="M107.827 37.7902C107.827 37.9236 107.827 38.0904 107.827 38.2238C107.827 38.3573 107.827 38.4907 107.795 38.6242C107.795 38.6909 107.763 38.7242 107.731 38.791C107.699 38.8243 107.667 38.8243 107.603 38.8243C107.54 38.8243 107.54 38.7576 107.508 38.7242C107.476 38.6909 107.476 38.6242 107.476 38.5908C107.476 38.3239 107.444 38.057 107.444 37.7902C107.444 37.7234 107.444 37.6901 107.476 37.6234C107.508 37.5233 107.571 37.4899 107.667 37.4899C107.731 37.4899 107.795 37.5566 107.827 37.6234C107.827 37.6901 107.859 37.7568 107.827 37.7902Z" fill="#C2C2C2"/>
<path d="M113.951 36.8895C114.207 36.8895 114.43 36.9562 114.621 37.123C114.717 37.1897 114.717 37.2564 114.621 37.3231C114.589 37.3565 114.557 37.3565 114.526 37.3231C114.462 37.2564 114.398 37.2231 114.302 37.1897C114.015 37.0896 113.76 37.0896 113.505 37.2898C113.473 37.3231 113.441 37.3231 113.441 37.3565C113.409 37.3565 113.409 37.3565 113.377 37.3565C113.345 37.3231 113.313 37.2898 113.281 37.2564C113.25 37.2231 113.25 37.1897 113.281 37.1897C113.441 37.0563 113.6 36.9562 113.824 36.9228C113.856 36.8895 113.919 36.8895 113.951 36.8895Z" fill="#C2C2C2"/>
<path d="M113.983 37.3898C114.079 37.3898 114.143 37.3898 114.238 37.4566C114.27 37.4566 114.27 37.4899 114.27 37.4899C114.334 37.5233 114.334 37.59 114.27 37.6567C114.207 37.7234 114.207 37.7234 114.111 37.6901C113.983 37.6234 113.888 37.6234 113.76 37.6901C113.728 37.7234 113.696 37.7234 113.664 37.6901C113.632 37.6567 113.632 37.6567 113.6 37.6234C113.569 37.59 113.569 37.5566 113.6 37.5233C113.76 37.4232 113.856 37.4232 113.983 37.3898Z" fill="#C2C2C2"/>
<path d="M116.759 40.092C116.727 40.0586 116.727 40.092 116.759 40.092C116.727 39.9252 116.663 39.7917 116.599 39.6583C116.408 39.1579 116.216 38.6909 116.025 38.1905C115.993 38.1237 115.961 38.057 115.929 38.0237C115.802 37.8235 115.546 37.8235 115.419 37.9903C115.355 38.057 115.323 38.1237 115.291 38.2238C115.132 38.7242 114.908 39.2246 114.749 39.725C114.685 39.8585 114.653 39.9919 114.621 40.1253C114.621 40.1921 114.621 40.2588 114.685 40.3255C114.717 40.3589 114.749 40.3589 114.781 40.3922C114.813 40.3922 114.813 40.3922 114.845 40.3922C114.908 40.3922 114.94 40.3589 114.972 40.3255C115.004 40.2921 115.036 40.2254 115.068 40.1587C115.1 40.0586 115.132 39.9585 115.164 39.8585C115.164 39.8251 115.195 39.7917 115.227 39.7917C115.483 39.7917 115.738 39.7917 115.993 39.7917C116.025 39.7917 116.025 39.7917 116.057 39.7917C116.089 39.7917 116.121 39.8251 116.121 39.8585C116.121 39.8918 116.152 39.9252 116.152 39.9585C116.184 40.0586 116.216 40.1587 116.28 40.2588C116.312 40.3255 116.344 40.3922 116.44 40.3922C116.471 40.3922 116.503 40.3922 116.535 40.3922C116.663 40.3922 116.695 40.3255 116.695 40.2254V40.1921C116.759 40.1587 116.759 40.1587 116.759 40.092C116.759 40.1253 116.759 40.1253 116.759 40.092ZM115.929 39.4248C115.738 39.4248 115.578 39.4248 115.387 39.4248C115.323 39.4248 115.323 39.4248 115.355 39.3581C115.451 39.0912 115.514 38.7909 115.642 38.5241C115.642 38.4907 115.642 38.4907 115.674 38.4573C115.738 38.5908 115.77 38.7242 115.833 38.8243C115.897 38.9911 115.961 39.1579 115.993 39.3247C115.993 39.3914 115.993 39.4248 115.929 39.4248Z" fill="#C2C2C2"/>
<path d="M110.921 38.5241C110.889 38.2572 110.729 38.057 110.474 37.9569C110.347 37.9236 110.187 37.9236 110.06 37.9236C109.932 37.9236 109.836 37.9236 109.709 37.9236C109.613 37.9236 109.517 37.9236 109.422 37.9236C109.39 37.9236 109.358 37.9236 109.326 37.9569C109.262 37.9903 109.198 38.0237 109.166 38.1237C109.134 38.1905 109.166 38.2905 109.166 38.3573C109.166 38.8243 109.166 39.2913 109.166 39.7584C109.166 39.8918 109.166 39.9919 109.166 40.1253C109.166 40.2254 109.198 40.3255 109.294 40.3589C109.326 40.3589 109.358 40.3589 109.39 40.3589C109.485 40.3255 109.549 40.2588 109.581 40.1587C109.613 40.092 109.613 39.9919 109.613 39.9252C109.613 39.7584 109.613 39.6249 109.613 39.4581C109.613 39.3914 109.613 39.3914 109.677 39.3914C109.804 39.3914 109.9 39.3914 110.028 39.3914C110.155 39.3914 110.283 39.3914 110.41 39.3581C110.602 39.2913 110.729 39.2246 110.793 39.0245C110.921 38.8577 110.921 38.6909 110.921 38.5241ZM110.219 39.0245C110.091 39.0578 109.964 39.0578 109.836 39.0578C109.772 39.0578 109.741 39.0578 109.677 39.0578C109.645 39.0578 109.645 39.0578 109.645 39.0245C109.645 38.7909 109.645 38.5908 109.645 38.3573C109.645 38.3239 109.645 38.3239 109.677 38.3239C109.836 38.3239 109.996 38.3239 110.123 38.3239C110.219 38.3239 110.315 38.3573 110.379 38.4573C110.538 38.6241 110.442 38.9577 110.219 39.0245Z" fill="#C2C2C2"/>
<path fill-rule="evenodd" clip-rule="evenodd" d="M113.69 135.611L112.448 136.368C112.143 136.554 111.796 136.652 111.443 136.652H110.952V138.637H111.443C111.796 138.637 112.143 138.735 112.448 138.921L113.69 139.679V135.611ZM113.644 135.199C113.825 135.089 114.053 135.226 114.053 135.445V139.844C114.053 140.064 113.825 140.201 113.644 140.09L112.265 139.249C112.016 139.097 111.732 139.017 111.443 139.017H110.952C110.751 139.017 110.589 138.847 110.589 138.637V136.652C110.589 136.443 110.751 136.273 110.952 136.273H111.443C111.732 136.273 112.016 136.193 112.265 136.04L113.644 135.199Z" fill="#ADADAD"/>
<path fill-rule="evenodd" clip-rule="evenodd" d="M114.465 136.857C114.465 136.752 114.546 136.667 114.647 136.667C115.17 136.667 115.603 137.1 115.603 137.645C115.603 138.19 115.17 138.623 114.647 138.623C114.546 138.623 114.465 138.538 114.465 138.433C114.465 138.328 114.546 138.243 114.647 138.243C114.98 138.243 115.241 137.97 115.241 137.645C115.241 137.32 114.98 137.046 114.647 137.046C114.546 137.046 114.465 136.962 114.465 136.857Z" fill="#ADADAD"/>
<path fill-rule="evenodd" clip-rule="evenodd" d="M114.465 136.068C114.465 135.964 114.546 135.879 114.647 135.879C115.598 135.879 116.378 136.664 116.378 137.645C116.378 138.625 115.598 139.411 114.647 139.411C114.546 139.411 114.465 139.326 114.465 139.221C114.465 139.116 114.546 139.031 114.647 139.031C115.408 139.031 116.016 138.406 116.016 137.645C116.016 136.884 115.408 136.258 114.647 136.258C114.546 136.258 114.465 136.173 114.465 136.068Z" fill="#ADADAD"/>
<path fill-rule="evenodd" clip-rule="evenodd" d="M136.527 137.407C136.428 137.397 136.355 137.304 136.364 137.2C136.381 137.015 136.425 136.745 136.594 136.508C136.769 136.263 137.058 136.081 137.513 136.037C137.612 136.028 137.701 136.104 137.71 136.209C137.719 136.313 137.646 136.405 137.546 136.415C137.175 136.451 136.988 136.591 136.884 136.735C136.775 136.888 136.74 137.073 136.725 137.235C136.716 137.34 136.627 137.416 136.527 137.407Z" fill="#ADADAD"/>
<path fill-rule="evenodd" clip-rule="evenodd" d="M137.449 135.66C136.65 135.66 136.003 136.337 136.003 137.172C136.003 137.63 136.091 137.993 136.263 138.241C136.286 138.273 136.31 138.307 136.335 138.343C136.443 138.496 136.569 138.675 136.67 138.859C136.798 139.092 136.907 139.373 136.907 139.697V140.103H137.991V139.717C137.991 139.389 138.104 139.106 138.233 138.871C138.33 138.696 138.451 138.522 138.556 138.374C138.586 138.33 138.616 138.288 138.643 138.249C138.811 138.002 138.895 137.637 138.895 137.172C138.895 136.337 138.248 135.66 137.449 135.66ZM135.64 137.172C135.64 136.127 136.45 135.28 137.449 135.28C138.448 135.28 139.258 136.127 139.258 137.172C139.258 137.674 139.169 138.131 138.937 138.469C138.906 138.516 138.873 138.563 138.84 138.61C138.602 138.95 138.353 139.304 138.353 139.717V140.293C138.353 140.397 138.272 140.482 138.172 140.482H136.726C136.626 140.482 136.544 140.397 136.544 140.293V139.697C136.544 139.278 136.29 138.919 136.049 138.577C136.022 138.539 135.996 138.502 135.97 138.464C135.735 138.126 135.64 137.672 135.64 137.172Z" fill="#ADADAD"/>
<path d="M193.088 29.8552L174.083 189.177L111.969 5.57272L193.088 29.8552Z" fill="white"/>
<path fill-rule="evenodd" clip-rule="evenodd" d="M158.526 136.226C158.526 136.121 158.607 136.036 158.707 136.036H163.23C163.33 136.036 163.411 136.121 163.411 136.226C163.411 136.331 163.33 136.416 163.23 136.416H158.707C158.607 136.416 158.526 136.331 158.526 136.226Z" fill="#ADADAD"/>
<path fill-rule="evenodd" clip-rule="evenodd" d="M158.526 135.28C158.526 135.176 158.607 135.091 158.707 135.091H163.23C163.33 135.091 163.411 135.176 163.411 135.28C163.411 135.385 163.33 135.47 163.23 135.47H158.707C158.607 135.47 158.526 135.385 158.526 135.28Z" fill="#ADADAD"/>
<path fill-rule="evenodd" clip-rule="evenodd" d="M158.526 137.172C158.526 137.067 158.607 136.982 158.707 136.982H163.23C163.33 136.982 163.411 137.067 163.411 137.172C163.411 137.277 163.33 137.362 163.23 137.362H158.707C158.607 137.362 158.526 137.277 158.526 137.172Z" fill="#ADADAD"/>
<path fill-rule="evenodd" clip-rule="evenodd" d="M158.526 138.118C158.526 138.013 158.607 137.928 158.707 137.928H163.23C163.33 137.928 163.411 138.013 163.411 138.118C163.411 138.223 163.33 138.308 163.23 138.308H158.707C158.607 138.308 158.526 138.223 158.526 138.118Z" fill="#ADADAD"/>
<path fill-rule="evenodd" clip-rule="evenodd" d="M158.526 139.064C158.526 138.959 158.607 138.874 158.707 138.874H163.221C163.326 138.874 163.411 138.963 163.411 139.073V140.009C163.411 140.114 163.33 140.199 163.23 140.199C163.129 140.199 163.048 140.114 163.048 140.009V139.253H158.707C158.607 139.253 158.526 139.168 158.526 139.064Z" fill="#ADADAD"/>
<path d="M145.403 72.8563H139.429C139.35 72.8563 139.274 72.8218 139.218 72.7606C139.162 72.6994 139.131 72.6163 139.131 72.5297C139.131 72.4431 139.162 72.36 139.218 72.2988C139.274 72.2376 139.35 72.2032 139.429 72.2032H145.403C145.718 72.2049 146.02 72.0718 146.247 71.8323C146.473 71.5928 146.604 71.2659 146.613 70.9216V54.508C146.613 54.3346 146.582 54.1629 146.521 54.0029C146.46 53.8429 146.37 53.6977 146.258 53.5756C146.145 53.4536 146.012 53.3572 145.865 53.292C145.719 53.2267 145.562 53.194 145.403 53.1956H130.456C130.139 53.1956 129.834 53.3339 129.609 53.58C129.384 53.8261 129.258 54.1599 129.258 54.508V70.9216C129.258 71.2697 129.384 71.6035 129.609 71.8496C129.834 72.0957 130.139 72.234 130.456 72.234H136.436C136.515 72.234 136.591 72.2684 136.647 72.3296C136.703 72.3909 136.734 72.4739 136.734 72.5605C136.734 72.6471 136.703 72.7302 136.647 72.7914C136.591 72.8527 136.515 72.8871 136.436 72.8871H130.456C129.98 72.8871 129.523 72.6802 129.185 72.3118C128.848 71.9434 128.658 71.4435 128.656 70.9216V54.508C128.658 53.9856 128.848 53.485 129.185 53.1156C129.522 52.7462 129.979 52.538 130.456 52.5364H145.403C145.88 52.538 146.336 52.7464 146.673 53.116C147.009 53.4856 147.198 53.9861 147.198 54.508V70.9216C147.191 71.4375 146.998 71.9296 146.662 72.2915C146.327 72.6535 145.874 72.8563 145.403 72.8563Z" fill="#ADADAD"/>
<path d="M145.404 52.386C145.925 52.3879 146.42 52.6162 146.783 53.0149C147.146 53.4134 147.348 53.9507 147.348 54.5081V70.9241C147.34 71.4751 147.135 72.0034 146.772 72.3938C146.41 72.7846 145.918 73.0062 145.403 73.0061H139.429C139.305 73.006 139.19 72.9521 139.107 72.8616C139.025 72.7714 138.98 72.6517 138.98 72.5295C138.981 72.4074 139.025 72.2877 139.107 72.1975C139.19 72.107 139.305 72.0531 139.429 72.053H145.404C145.675 72.0545 145.939 71.9405 146.138 71.7297C146.336 71.5192 146.454 71.2291 146.463 70.9211V54.5081C146.463 54.3527 146.435 54.1987 146.381 54.0559C146.327 53.9132 146.247 53.7845 146.147 53.677C146.048 53.5697 145.932 53.4855 145.805 53.429C145.677 53.3724 145.542 53.3446 145.405 53.3459H130.456C130.183 53.3461 129.917 53.4643 129.72 53.6809C129.521 53.8981 129.408 54.1956 129.408 54.5081V70.9211C129.408 71.2335 129.522 71.5312 129.72 71.7483C129.917 71.9649 130.183 72.0841 130.456 72.0842H136.437C136.56 72.0843 136.675 72.1382 136.758 72.2288C136.84 72.3189 136.885 72.4386 136.885 72.5608C136.885 72.6829 136.84 72.8027 136.758 72.8928C136.675 72.9833 136.56 73.0373 136.437 73.0374H130.456C129.936 73.0373 129.439 72.8108 129.075 72.4133C128.711 72.0161 128.507 71.4795 128.506 70.9221V54.5071C128.508 53.9495 128.711 53.413 129.074 53.0149C129.438 52.6162 129.935 52.3878 130.456 52.386H145.404Z" stroke="#C5C5C5" stroke-opacity="0.4" stroke-width="0.3" stroke-miterlimit="10"/>
<path d="M145.403 118.403H139.429C139.35 118.403 139.274 118.369 139.218 118.307C139.162 118.246 139.131 118.163 139.131 118.076C139.131 117.99 139.162 117.907 139.218 117.846C139.274 117.784 139.35 117.75 139.429 117.75H145.403C145.718 117.752 146.02 117.619 146.247 117.379C146.473 117.14 146.604 116.813 146.613 116.468V100.055C146.613 99.8814 146.582 99.7097 146.521 99.5497C146.46 99.3896 146.37 99.2444 146.258 99.1224C146.145 99.0004 146.012 98.9039 145.865 98.8387C145.719 98.7735 145.562 98.7408 145.403 98.7424H130.456C130.139 98.7424 129.834 98.8806 129.609 99.1268C129.384 99.3729 129.258 99.7067 129.258 100.055V116.468C129.258 116.816 129.384 117.15 129.609 117.396C129.834 117.642 130.139 117.781 130.456 117.781H136.436C136.515 117.781 136.591 117.815 136.647 117.876C136.703 117.938 136.734 118.021 136.734 118.107C136.734 118.194 136.703 118.277 136.647 118.338C136.591 118.399 136.515 118.434 136.436 118.434H130.456C129.98 118.434 129.523 118.227 129.185 117.859C128.848 117.49 128.658 116.99 128.656 116.468V100.055C128.658 99.5323 128.848 99.0318 129.185 98.6624C129.522 98.293 129.979 98.0848 130.456 98.0831H145.403C145.88 98.0848 146.336 98.2932 146.673 98.6628C147.009 99.0323 147.198 99.5329 147.198 100.055V116.468C147.191 116.984 146.998 117.476 146.662 117.838C146.327 118.2 145.874 118.403 145.403 118.403Z" fill="#ADADAD"/>
<path d="M145.404 97.9327C145.925 97.9346 146.42 98.163 146.783 98.5616C147.146 98.9601 147.348 99.4974 147.348 100.055V116.471C147.34 117.022 147.135 117.55 146.772 117.941C146.41 118.331 145.918 118.553 145.403 118.553H139.429C139.305 118.553 139.19 118.499 139.107 118.408C139.025 118.318 138.98 118.198 138.98 118.076C138.981 117.954 139.025 117.834 139.107 117.744C139.19 117.654 139.305 117.6 139.429 117.6H145.404C145.675 117.601 145.939 117.487 146.138 117.276C146.336 117.066 146.454 116.776 146.463 116.468V100.055C146.463 99.8994 146.435 99.7454 146.381 99.6027C146.327 99.46 146.247 99.3312 146.147 99.2238C146.048 99.1164 145.932 99.0323 145.805 98.9757C145.677 98.9192 145.542 98.8913 145.405 98.8927H130.456C130.183 98.8928 129.917 99.0111 129.72 99.2277C129.521 99.4448 129.408 99.7424 129.408 100.055V116.468C129.408 116.78 129.522 117.078 129.72 117.295C129.917 117.512 130.183 117.631 130.456 117.631H136.437C136.56 117.631 136.675 117.685 136.758 117.776C136.84 117.866 136.885 117.985 136.885 118.108C136.885 118.23 136.84 118.349 136.758 118.44C136.675 118.53 136.56 118.584 136.437 118.584H130.456C129.936 118.584 129.439 118.358 129.075 117.96C128.711 117.563 128.507 117.026 128.506 116.469V100.054C128.508 99.4963 128.711 98.9597 129.074 98.5616C129.438 98.163 129.935 97.9345 130.456 97.9327H145.404Z" stroke="#C5C5C5" stroke-opacity="0.4" stroke-width="0.3" stroke-miterlimit="10"/>
</g>
</g>
<defs>
<filter id="filter0_d_1098_11938" x="92.9167" y="31.1857" width="82.1667" height="126.228" filterUnits="userSpaceOnUse" color-interpolation-filters="sRGB">
<feFlood flood-opacity="0" result="BackgroundImageFix"/>
<feColorMatrix in="SourceAlpha" type="matrix" values="0 0 0 0 0 0 0 0 0 0 0 0 0 0 0 0 0 0 127 0" result="hardAlpha"/>
<feOffset dx="-3" dy="3"/>
<feGaussianBlur stdDeviation="2"/>
<feComposite in2="hardAlpha" operator="out"/>
<feColorMatrix type="matrix" values="0 0 0 0 0 0 0 0 0 0 0 0 0 0 0 0 0 0 0.25 0"/>
<feBlend mode="normal" in2="BackgroundImageFix" result="effect1_dropShadow_1098_11938"/>
<feBlend mode="normal" in="SourceGraphic" in2="effect1_dropShadow_1098_11938" result="shape"/>
</filter>
<clipPath id="clip0_1098_11938">
<rect width="74.1667" height="118.228" fill="white" transform="translate(99.9167 32.1857)"/>
</clipPath>
</defs>
</svg>
