<svg width="280" height="180" viewBox="0 0 280 180" fill="none" xmlns="http://www.w3.org/2000/svg">
<g filter="url(#filter0_d_1098_11957)">
<g clip-path="url(#clip0_1098_11957)">
<rect width="76.5486" height="117.104" transform="translate(104.75 32.7)" fill="white"/>
<rect x="104.75" y="32.7" width="76.5486" height="117.104" fill="black"/>
<path d="M116.799 40.8286C116.766 40.8286 116.733 40.8286 116.733 40.8286C116.602 40.7956 116.569 40.6964 116.536 40.5973C116.536 40.5643 116.536 40.5312 116.536 40.4982C116.536 39.9034 116.536 39.3086 116.536 38.7139C116.536 38.6478 116.536 38.5817 116.569 38.5156C116.602 38.4165 116.667 38.3834 116.766 38.3834C116.865 38.3834 116.964 38.4495 116.997 38.5486C117.03 38.6478 117.03 38.7469 117.03 38.846C117.03 39.0112 117.03 39.1765 117.03 39.3086C117.03 39.3417 117.03 39.3747 117.095 39.3747C117.392 39.3747 117.721 39.3747 118.017 39.3747C118.083 39.3747 118.083 39.3747 118.083 39.3086C118.083 39.1104 118.083 38.9121 118.083 38.7139C118.083 38.6478 118.083 38.5817 118.116 38.5156C118.149 38.4165 118.248 38.3834 118.347 38.3834C118.412 38.3834 118.478 38.4495 118.511 38.5486C118.544 38.6478 118.544 38.7469 118.544 38.846C118.544 39.0773 118.544 39.3417 118.544 39.573C118.544 39.9034 118.544 40.2008 118.544 40.5312C118.544 40.5973 118.544 40.6634 118.511 40.7295C118.478 40.8286 118.412 40.8616 118.314 40.8616C118.215 40.8616 118.149 40.8286 118.116 40.7295C118.083 40.6303 118.083 40.5312 118.083 40.4321C118.083 40.333 118.083 40.2008 118.083 40.1017C118.083 40.0025 118.083 39.9034 118.083 39.8043C118.083 39.7712 118.05 39.7712 118.05 39.7712C117.886 39.7712 117.721 39.7712 117.556 39.7712C117.392 39.7712 117.227 39.7712 117.095 39.7712C117.062 39.7712 117.03 39.7712 117.03 39.8043C117.03 39.9364 117.03 40.0686 117.03 40.2008C117.03 40.333 117.03 40.4651 117.03 40.5973C116.997 40.6964 116.931 40.7956 116.799 40.8286Z" fill="#C5C5C5" fill-opacity="0.3"/>
<path d="M112.42 38.6146C112.42 38.6807 112.42 38.7138 112.42 38.7799C112.42 38.8129 112.42 38.8129 112.387 38.8129C112.19 38.9451 112.091 39.1433 112.058 39.3746C111.992 39.639 112.025 39.9033 112.19 40.1677C112.288 40.3329 112.453 40.432 112.651 40.465C113.013 40.4981 113.276 40.2998 113.342 40.0024C113.408 39.7711 113.441 39.5068 113.342 39.2755C113.309 39.1433 113.21 39.0442 113.112 38.9451C113.046 38.879 113.013 38.8129 113.013 38.7468C113.013 38.6807 113.013 38.5816 113.013 38.5155C113.013 38.4494 113.013 38.4494 113.079 38.4825C113.276 38.5155 113.441 38.6146 113.572 38.7799C113.737 38.9781 113.803 39.2094 113.836 39.4407C113.869 39.672 113.836 39.9033 113.77 40.1346C113.605 40.5311 113.342 40.7624 112.914 40.8285C112.651 40.8616 112.387 40.8616 112.157 40.7624C111.828 40.6303 111.663 40.3659 111.564 40.0685C111.531 39.639 111.531 39.3085 111.696 38.9781C111.795 38.8129 111.893 38.6477 112.058 38.5155C112.157 38.4494 112.256 38.4164 112.354 38.4164C112.387 38.4164 112.42 38.4164 112.42 38.4494C112.42 38.5155 112.42 38.5486 112.42 38.6146Z" fill="#C5C5C5" fill-opacity="0.3"/>
<path d="M110.412 40.8286C110.379 40.8286 110.313 40.8286 110.28 40.8286C110.083 40.8286 109.885 40.7625 109.72 40.6634C109.556 40.5642 109.457 40.399 109.424 40.2008C109.391 40.0686 109.49 39.9695 109.589 39.9364C109.655 39.9364 109.687 39.9364 109.72 39.9695C109.753 40.0025 109.786 40.0355 109.786 40.0686C109.819 40.1347 109.852 40.2008 109.885 40.2668C109.951 40.399 110.05 40.4651 110.214 40.4981C110.346 40.5312 110.511 40.4981 110.642 40.4321C110.708 40.399 110.774 40.3329 110.807 40.2668C110.84 40.1677 110.84 40.1016 110.774 40.0355C110.708 39.9364 110.576 39.8703 110.478 39.8373C110.313 39.7712 110.148 39.7712 109.984 39.7051C109.852 39.6721 109.72 39.606 109.622 39.5069C109.391 39.2756 109.391 38.9121 109.589 38.6808C109.655 38.6147 109.753 38.5486 109.852 38.5156C110.214 38.3504 110.576 38.3504 110.906 38.5486C111.037 38.6477 111.136 38.7469 111.169 38.9121C111.202 39.0443 111.136 39.1434 111.037 39.1764C110.971 39.2095 110.906 39.1764 110.873 39.1434C110.807 39.0773 110.774 39.0112 110.741 38.9451C110.741 38.9121 110.708 38.9121 110.708 38.879C110.642 38.7799 110.543 38.7138 110.445 38.6808C110.28 38.6477 110.148 38.6808 110.017 38.7799C109.885 38.879 109.885 39.0443 110.017 39.1434C110.115 39.2095 110.247 39.2425 110.346 39.2756C110.543 39.3416 110.741 39.3747 110.906 39.4738C111.07 39.5399 111.202 39.639 111.268 39.8042C111.367 40.0686 111.301 40.4981 110.873 40.6964C110.708 40.7625 110.543 40.7955 110.412 40.8286Z" fill="#C5C5C5" fill-opacity="0.3"/>
<path d="M119.071 39.8703C119.071 39.639 119.071 39.4408 119.071 39.2095C119.071 39.0442 119.038 38.9121 119.071 38.7469C119.071 38.6477 119.071 38.5486 119.104 38.4825C119.137 38.3834 119.203 38.3503 119.301 38.3503C119.4 38.3503 119.466 38.3834 119.532 38.4825C119.565 38.5816 119.598 38.6808 119.598 38.7469C119.598 38.9121 119.598 39.0773 119.598 39.2425C119.598 39.4408 119.598 39.639 119.598 39.8373C119.598 40.0686 119.598 40.2999 119.598 40.4981C119.598 40.5642 119.598 40.5973 119.565 40.6633C119.532 40.7294 119.466 40.7955 119.367 40.7955C119.203 40.7955 119.104 40.7294 119.104 40.5312C119.071 40.3329 119.071 40.1016 119.071 39.8703Z" fill="#C5C5C5" fill-opacity="0.3"/>
<path d="M119.301 37.0947C118.972 37.0947 118.676 37.1938 118.445 37.3921C118.347 37.4912 118.347 37.4582 118.281 37.3921C118.182 37.326 118.215 37.293 118.281 37.2269C118.478 37.0617 118.709 36.9295 118.972 36.8965C119.499 36.7973 119.927 36.9295 120.322 37.2599C120.388 37.293 120.388 37.326 120.322 37.3591C120.289 37.3921 120.289 37.3921 120.256 37.4251C120.223 37.4582 120.19 37.4582 120.157 37.4251C120.124 37.3921 120.091 37.3921 120.059 37.3591C119.861 37.1938 119.663 37.1278 119.4 37.0947C119.367 37.0947 119.367 37.0947 119.334 37.0947C119.334 37.1278 119.334 37.1278 119.301 37.0947Z" fill="#C5C5C5" fill-opacity="0.3"/>
<path d="M112.914 38.2512C112.914 38.3834 112.914 38.5486 112.914 38.6808C112.914 38.813 112.914 38.9451 112.881 39.0773C112.881 39.1434 112.848 39.1764 112.815 39.2425C112.782 39.2756 112.749 39.2756 112.684 39.2756C112.618 39.2756 112.618 39.2095 112.585 39.1764C112.552 39.1434 112.552 39.0773 112.552 39.0443C112.552 38.7799 112.519 38.5156 112.519 38.2512C112.519 38.1852 112.519 38.1521 112.552 38.086C112.585 37.9869 112.651 37.9539 112.749 37.9539C112.815 37.9539 112.881 38.0199 112.914 38.086C112.914 38.1521 112.947 38.2182 112.914 38.2512Z" fill="#C5C5C5" fill-opacity="0.3"/>
<path d="M119.235 37.359C119.499 37.359 119.729 37.4251 119.927 37.5903C120.026 37.6564 120.026 37.7225 119.927 37.7886C119.894 37.8216 119.861 37.8216 119.828 37.7886C119.762 37.7225 119.696 37.6894 119.598 37.6564C119.301 37.5573 119.038 37.5573 118.775 37.7555C118.742 37.7886 118.709 37.7886 118.709 37.8216C118.676 37.8216 118.676 37.8216 118.643 37.8216C118.61 37.7886 118.577 37.7555 118.544 37.7225C118.511 37.6894 118.511 37.6564 118.544 37.6564C118.709 37.5242 118.873 37.4251 119.104 37.3921C119.137 37.359 119.203 37.359 119.235 37.359Z" fill="#C5C5C5" fill-opacity="0.3"/>
<path d="M119.268 37.8547C119.367 37.8547 119.433 37.8547 119.532 37.9208C119.565 37.9208 119.565 37.9539 119.565 37.9539C119.631 37.9869 119.631 38.053 119.565 38.1191C119.499 38.1852 119.499 38.1852 119.4 38.1521C119.268 38.086 119.17 38.086 119.038 38.1521C119.005 38.1852 118.972 38.1852 118.939 38.1521C118.906 38.1191 118.906 38.1191 118.873 38.086C118.84 38.053 118.84 38.02 118.873 37.9869C119.038 37.8878 119.137 37.8878 119.268 37.8547Z" fill="#C5C5C5" fill-opacity="0.3"/>
<path d="M122.133 40.5312C122.1 40.4982 122.1 40.5312 122.133 40.5312C122.1 40.366 122.034 40.2338 121.968 40.1017C121.771 39.606 121.573 39.1434 121.376 38.6478C121.343 38.5817 121.31 38.5156 121.277 38.4826C121.145 38.2843 120.882 38.2843 120.75 38.4495C120.684 38.5156 120.651 38.5817 120.618 38.6808C120.454 39.1765 120.223 39.6721 120.059 40.1678C119.993 40.2999 119.96 40.4321 119.927 40.5643C119.927 40.6304 119.927 40.6964 119.993 40.7625C120.026 40.7956 120.059 40.7956 120.091 40.8286C120.124 40.8286 120.124 40.8286 120.157 40.8286C120.223 40.8286 120.256 40.7956 120.289 40.7625C120.322 40.7295 120.355 40.6634 120.388 40.5973C120.421 40.4982 120.454 40.3991 120.487 40.2999C120.487 40.2669 120.519 40.2338 120.552 40.2338C120.816 40.2338 121.079 40.2338 121.343 40.2338C121.376 40.2338 121.376 40.2338 121.408 40.2338C121.441 40.2338 121.474 40.2669 121.474 40.2999C121.474 40.333 121.507 40.366 121.507 40.3991C121.54 40.4982 121.573 40.5973 121.639 40.6965C121.672 40.7625 121.705 40.8286 121.804 40.8286C121.836 40.8286 121.869 40.8286 121.902 40.8286C122.034 40.8286 122.067 40.7625 122.067 40.6634V40.6304C122.133 40.5973 122.133 40.5973 122.133 40.5312C122.133 40.5643 122.133 40.5643 122.133 40.5312ZM121.277 39.8704C121.079 39.8704 120.915 39.8704 120.717 39.8704C120.651 39.8704 120.651 39.8704 120.684 39.8043C120.783 39.5399 120.849 39.2426 120.98 38.9782C120.98 38.9452 120.98 38.9452 121.013 38.9121C121.079 39.0443 121.112 39.1765 121.178 39.2756C121.244 39.4408 121.31 39.606 121.343 39.7712C121.343 39.8373 121.343 39.8704 121.277 39.8704Z" fill="#C5C5C5" fill-opacity="0.3"/>
<path d="M116.108 38.9782C116.075 38.7139 115.91 38.5156 115.647 38.4165C115.515 38.3834 115.35 38.3834 115.219 38.3834C115.087 38.3834 114.988 38.3834 114.857 38.3834C114.758 38.3834 114.659 38.3834 114.56 38.3834C114.527 38.3834 114.494 38.3834 114.461 38.4165C114.396 38.4495 114.33 38.4826 114.297 38.5817C114.264 38.6478 114.297 38.7469 114.297 38.813C114.297 39.2756 114.297 39.7382 114.297 40.2008C114.297 40.333 114.297 40.4321 114.297 40.5643C114.297 40.6634 114.33 40.7625 114.429 40.7956C114.461 40.7956 114.494 40.7956 114.527 40.7956C114.626 40.7625 114.692 40.6964 114.725 40.5973C114.758 40.5312 114.758 40.4321 114.758 40.366C114.758 40.2008 114.758 40.0686 114.758 39.9034C114.758 39.8373 114.758 39.8373 114.824 39.8373C114.955 39.8373 115.054 39.8373 115.186 39.8373C115.317 39.8373 115.449 39.8373 115.581 39.8043C115.778 39.7382 115.91 39.6721 115.976 39.4738C116.108 39.3086 116.108 39.1434 116.108 38.9782ZM115.383 39.4738C115.252 39.5069 115.12 39.5069 114.988 39.5069C114.922 39.5069 114.889 39.5069 114.824 39.5069C114.791 39.5069 114.791 39.5069 114.791 39.4738C114.791 39.2425 114.791 39.0443 114.791 38.813C114.791 38.7799 114.791 38.7799 114.824 38.7799C114.988 38.7799 115.153 38.7799 115.285 38.7799C115.383 38.7799 115.482 38.813 115.548 38.9121C115.713 39.0773 115.614 39.4078 115.383 39.4738Z" fill="#C5C5C5" fill-opacity="0.3"/>
<path fill-rule="evenodd" clip-rule="evenodd" d="M118.966 135.142L117.684 135.892C117.369 136.077 117.011 136.174 116.647 136.174H116.139V138.14H116.647C117.011 138.14 117.369 138.237 117.684 138.421L118.966 139.172V135.142ZM118.918 134.735C119.105 134.625 119.34 134.761 119.34 134.978V139.335C119.34 139.553 119.105 139.688 118.918 139.579L117.495 138.746C117.238 138.595 116.945 138.516 116.647 138.516H116.139C115.933 138.516 115.765 138.348 115.765 138.14V136.174C115.765 135.966 115.933 135.798 116.139 135.798H116.647C116.945 135.798 117.238 135.718 117.495 135.568L118.918 134.735Z" fill="#C5C5C5" fill-opacity="0.4"/>
<path fill-rule="evenodd" clip-rule="evenodd" d="M119.766 136.376C119.766 136.272 119.85 136.188 119.953 136.188C120.493 136.188 120.94 136.617 120.94 137.157C120.94 137.697 120.493 138.126 119.953 138.126C119.85 138.126 119.766 138.041 119.766 137.938C119.766 137.834 119.85 137.75 119.953 137.75C120.297 137.75 120.566 137.479 120.566 137.157C120.566 136.835 120.297 136.564 119.953 136.564C119.85 136.564 119.766 136.48 119.766 136.376Z" fill="#C5C5C5" fill-opacity="0.4"/>
<path fill-rule="evenodd" clip-rule="evenodd" d="M119.766 135.595C119.766 135.492 119.85 135.407 119.953 135.407C120.935 135.407 121.741 136.186 121.741 137.157C121.741 138.128 120.935 138.906 119.953 138.906C119.85 138.906 119.766 138.822 119.766 138.718C119.766 138.614 119.85 138.53 119.953 138.53C120.739 138.53 121.366 137.91 121.366 137.157C121.366 136.403 120.739 135.783 119.953 135.783C119.85 135.783 119.766 135.699 119.766 135.595Z" fill="#C5C5C5" fill-opacity="0.4"/>
<path fill-rule="evenodd" clip-rule="evenodd" d="M165.242 135.752C165.242 135.648 165.325 135.564 165.429 135.564H170.096C170.2 135.564 170.284 135.648 170.284 135.752C170.284 135.856 170.2 135.94 170.096 135.94H165.429C165.325 135.94 165.242 135.856 165.242 135.752Z" fill="#C5C5C5" fill-opacity="0.4"/>
<path fill-rule="evenodd" clip-rule="evenodd" d="M165.242 134.815C165.242 134.711 165.325 134.627 165.429 134.627H170.096C170.2 134.627 170.284 134.711 170.284 134.815C170.284 134.919 170.2 135.003 170.096 135.003H165.429C165.325 135.003 165.242 134.919 165.242 134.815Z" fill="#C5C5C5" fill-opacity="0.4"/>
<path fill-rule="evenodd" clip-rule="evenodd" d="M165.242 136.688C165.242 136.585 165.325 136.5 165.429 136.5H170.096C170.2 136.5 170.284 136.585 170.284 136.688C170.284 136.792 170.2 136.876 170.096 136.876H165.429C165.325 136.876 165.242 136.792 165.242 136.688Z" fill="#C5C5C5" fill-opacity="0.4"/>
<path fill-rule="evenodd" clip-rule="evenodd" d="M165.242 137.625C165.242 137.522 165.325 137.437 165.429 137.437H170.096C170.2 137.437 170.284 137.522 170.284 137.625C170.284 137.729 170.2 137.813 170.096 137.813H165.429C165.325 137.813 165.242 137.729 165.242 137.625Z" fill="#C5C5C5" fill-opacity="0.4"/>
<path fill-rule="evenodd" clip-rule="evenodd" d="M165.242 138.562C165.242 138.458 165.325 138.374 165.429 138.374H170.087C170.196 138.374 170.284 138.463 170.284 138.572V139.499C170.284 139.603 170.2 139.687 170.096 139.687C169.993 139.687 169.909 139.603 169.909 139.499V138.75H165.429C165.325 138.75 165.242 138.666 165.242 138.562Z" fill="#C5C5C5" fill-opacity="0.4"/>
<path fill-rule="evenodd" clip-rule="evenodd" d="M142.537 136.921C142.434 136.911 142.358 136.82 142.368 136.716C142.385 136.533 142.43 136.265 142.605 136.031C142.786 135.788 143.084 135.608 143.553 135.565C143.656 135.555 143.747 135.631 143.757 135.735C143.766 135.838 143.69 135.929 143.588 135.939C143.205 135.974 143.011 136.113 142.905 136.256C142.792 136.407 142.756 136.591 142.74 136.752C142.731 136.855 142.639 136.931 142.537 136.921Z" fill="#C5C5C5" fill-opacity="0.4"/>
<path fill-rule="evenodd" clip-rule="evenodd" d="M143.488 135.191C142.663 135.191 141.995 135.862 141.995 136.688C141.995 137.142 142.086 137.502 142.264 137.747C142.287 137.779 142.312 137.813 142.338 137.848C142.449 138 142.58 138.177 142.684 138.359C142.815 138.591 142.928 138.869 142.928 139.19V139.591H144.047V139.21C144.047 138.885 144.163 138.604 144.297 138.371C144.397 138.198 144.522 138.026 144.63 137.879C144.662 137.835 144.692 137.794 144.72 137.755C144.894 137.51 144.98 137.149 144.98 136.688C144.98 135.862 144.312 135.191 143.488 135.191ZM141.621 136.688C141.621 135.654 142.457 134.815 143.488 134.815C144.519 134.815 145.355 135.654 145.355 136.688C145.355 137.186 145.263 137.638 145.024 137.974C144.991 138.02 144.957 138.066 144.923 138.113C144.678 138.449 144.421 138.801 144.421 139.21V139.779C144.421 139.883 144.337 139.967 144.234 139.967H142.741C142.638 139.967 142.554 139.883 142.554 139.779V139.19C142.554 138.775 142.292 138.419 142.043 138.08C142.015 138.043 141.988 138.005 141.961 137.968C141.718 137.633 141.621 137.183 141.621 136.688Z" fill="#C5C5C5" fill-opacity="0.4"/>
<path d="M205.22 40.9209L176.036 179.08L124.057 6.07296L205.22 40.9209Z" fill="#282828"/>
<path d="M129.582 64.4648H126.201C126.156 64.4648 126.113 64.4463 126.081 64.4135C126.05 64.3806 126.032 64.3361 126.032 64.2896C126.032 64.2432 126.05 64.1987 126.081 64.1658C126.113 64.133 126.156 64.1145 126.201 64.1145H129.582C129.759 64.1155 129.931 64.0441 130.059 63.9156C130.187 63.7872 130.261 63.6119 130.266 63.4273V54.6254C130.266 54.5324 130.248 54.4404 130.214 54.3545C130.179 54.2687 130.129 54.1909 130.065 54.1254C130.001 54.06 129.926 54.0083 129.843 53.9733C129.76 53.9383 129.671 53.9208 129.582 53.9216H121.123C120.943 53.9216 120.771 53.9958 120.643 54.1278C120.516 54.2597 120.445 54.4388 120.445 54.6254V63.4273C120.445 63.6139 120.516 63.7929 120.643 63.9249C120.771 64.0569 120.943 64.131 121.123 64.131H124.507C124.552 64.131 124.595 64.1495 124.626 64.1823C124.658 64.2152 124.676 64.2597 124.676 64.3062C124.676 64.3526 124.658 64.3971 124.626 64.43C124.595 64.4628 124.552 64.4813 124.507 64.4813H121.123C120.853 64.4813 120.595 64.3703 120.404 64.1728C120.213 63.9752 120.105 63.7071 120.104 63.4273V54.6254C120.105 54.3453 120.213 54.0768 120.403 53.8788C120.594 53.6807 120.853 53.569 121.123 53.5681H129.582C129.851 53.569 130.109 53.6808 130.3 53.879C130.49 54.0771 130.597 54.3456 130.597 54.6254V63.4273C130.593 63.704 130.484 63.9678 130.294 64.1619C130.104 64.356 129.848 64.4648 129.582 64.4648Z" fill="#C5C5C5" fill-opacity="0.4"/>
<path d="M129.582 53.4177L129.698 53.4246C129.966 53.453 130.217 53.5766 130.408 53.7751C130.626 54.0018 130.747 54.3079 130.747 54.6257V63.4294C130.742 63.7437 130.618 64.0442 130.401 64.2664C130.183 64.4886 129.889 64.615 129.582 64.615H126.201C126.114 64.615 126.033 64.5789 125.973 64.5173C125.914 64.456 125.882 64.3742 125.882 64.2898C125.882 64.2053 125.914 64.1226 125.973 64.0613C126.033 63.9999 126.115 63.9646 126.201 63.9646H129.583C129.72 63.9652 129.853 63.9098 129.953 63.8093C130.052 63.7096 130.111 63.5729 130.116 63.4275V54.6257C130.116 54.552 130.102 54.4787 130.075 54.4109C130.048 54.343 130.007 54.2814 129.958 54.2302C129.908 54.179 129.849 54.1382 129.785 54.1111C129.721 54.084 129.652 54.0713 129.583 54.072H121.123C120.985 54.0721 120.851 54.129 120.752 54.2322C120.652 54.3356 120.594 54.4771 120.594 54.6257V63.4275C120.594 63.576 120.652 63.7176 120.752 63.821C120.851 63.9241 120.985 63.9812 121.123 63.9812H124.507C124.593 63.9812 124.675 64.0165 124.734 64.0779C124.793 64.1392 124.826 64.2219 124.826 64.3064C124.826 64.3908 124.793 64.4726 124.734 64.5339C124.675 64.5954 124.593 64.6316 124.507 64.6316H121.123C120.812 64.6315 120.514 64.5032 120.296 64.2771C120.077 64.0511 119.955 63.7452 119.954 63.4275V54.6248C119.955 54.3069 120.077 54.0016 120.296 53.7751C120.514 53.5485 120.811 53.4187 121.123 53.4177H129.582Z" stroke="#C5C5C5" stroke-opacity="0.4" stroke-width="0.3" stroke-miterlimit="10"/>
<path d="M165.186 64.4648H161.799C161.754 64.4648 161.711 64.4463 161.68 64.4135C161.648 64.3806 161.63 64.3361 161.63 64.2896C161.63 64.2432 161.648 64.1987 161.68 64.1658C161.711 64.133 161.754 64.1145 161.799 64.1145H165.186C165.365 64.1163 165.537 64.0453 165.665 63.9168C165.794 63.7883 165.869 63.6125 165.874 63.4273V54.6254C165.874 54.4388 165.802 54.2597 165.675 54.1278C165.548 53.9958 165.375 53.9216 165.196 53.9216H156.721C156.541 53.9216 156.369 53.9958 156.242 54.1278C156.114 54.2597 156.043 54.4388 156.043 54.6254V63.4273C156.043 63.6139 156.114 63.7929 156.242 63.9249C156.369 64.0569 156.541 64.131 156.721 64.131H160.105C160.15 64.131 160.193 64.1495 160.225 64.1823C160.256 64.2152 160.274 64.2597 160.274 64.3062C160.274 64.3526 160.256 64.3971 160.225 64.43C160.193 64.4628 160.15 64.4813 160.105 64.4813H156.721C156.451 64.4813 156.193 64.3703 156.002 64.1728C155.811 63.9752 155.703 63.7071 155.702 63.4273V54.6254C155.703 54.3453 155.811 54.0768 156.002 53.8788C156.193 53.6807 156.451 53.569 156.721 53.5681H165.186C165.456 53.569 165.714 53.6808 165.904 53.879C166.095 54.0771 166.202 54.3456 166.202 54.6254V63.4273C166.197 63.704 166.089 63.9678 165.899 64.1619C165.709 64.356 165.453 64.4648 165.186 64.4648Z" fill="#C5C5C5" fill-opacity="0.4"/>
<path d="M165.187 53.4177C165.498 53.4188 165.795 53.5483 166.013 53.7751C166.231 54.0018 166.352 54.3081 166.352 54.6257V63.4294C166.347 63.7436 166.223 64.0443 166.006 64.2664C165.788 64.4887 165.494 64.615 165.186 64.615H161.799C161.713 64.615 161.631 64.5789 161.572 64.5173C161.512 64.456 161.48 64.3742 161.48 64.2898C161.48 64.2053 161.512 64.1226 161.572 64.0613C161.631 63.9999 161.713 63.9646 161.799 63.9646H165.188C165.325 63.966 165.458 63.9109 165.559 63.8103C165.66 63.7096 165.72 63.5711 165.724 63.4236V54.6257C165.724 54.4773 165.667 54.3356 165.568 54.2322C165.468 54.1289 165.334 54.072 165.196 54.072H156.721C156.583 54.0721 156.449 54.129 156.35 54.2322C156.25 54.3356 156.193 54.4771 156.193 54.6257V63.4275C156.193 63.576 156.25 63.7176 156.35 63.821C156.449 63.9241 156.583 63.9812 156.721 63.9812H160.105C160.191 63.9812 160.273 64.0165 160.332 64.0779C160.391 64.1392 160.424 64.2219 160.424 64.3064C160.424 64.3908 160.391 64.4726 160.332 64.5339C160.273 64.5954 160.191 64.6316 160.105 64.6316H156.721C156.41 64.6315 156.112 64.5032 155.894 64.2771C155.675 64.0511 155.553 63.7452 155.552 63.4275V54.6248C155.553 54.3069 155.676 54.0016 155.894 53.7751C156.112 53.5485 156.41 53.4187 156.721 53.4177H165.187Z" stroke="#C5C5C5" stroke-opacity="0.4" stroke-width="0.3" stroke-miterlimit="10"/>
<path d="M129.553 119.017H126.169C126.144 119.021 126.12 119.019 126.096 119.012C126.073 119.004 126.051 118.992 126.032 118.975C126.014 118.958 125.999 118.938 125.989 118.914C125.979 118.891 125.974 118.866 125.974 118.841C125.974 118.815 125.979 118.79 125.989 118.767C125.999 118.744 126.014 118.723 126.032 118.706C126.051 118.689 126.073 118.677 126.096 118.67C126.12 118.662 126.144 118.66 126.169 118.664H129.553C129.731 118.66 129.9 118.585 130.024 118.453C130.149 118.321 130.218 118.144 130.218 117.96V109.175C130.218 108.988 130.147 108.809 130.02 108.677C129.892 108.545 129.72 108.471 129.54 108.471H121.088C120.908 108.472 120.736 108.546 120.609 108.678C120.482 108.81 120.411 108.988 120.41 109.175V117.96C120.41 118.147 120.481 118.326 120.608 118.458C120.736 118.59 120.908 118.664 121.088 118.664H124.488C124.529 118.67 124.567 118.691 124.594 118.723C124.621 118.756 124.636 118.797 124.636 118.841C124.636 118.884 124.621 118.925 124.594 118.958C124.567 118.99 124.529 119.012 124.488 119.017H121.088C120.818 119.016 120.56 118.905 120.37 118.707C120.179 118.508 120.072 118.24 120.072 117.96V109.175C120.072 108.895 120.179 108.627 120.37 108.429C120.56 108.232 120.819 108.121 121.088 108.121H129.553C129.823 108.121 130.081 108.232 130.272 108.429C130.463 108.627 130.571 108.895 130.572 109.175V117.96C130.571 118.24 130.463 118.509 130.272 118.707C130.081 118.905 129.823 119.016 129.553 119.017Z" fill="#C5C5C5" fill-opacity="0.4"/>
<path d="M129.553 107.97C129.864 107.97 130.161 108.099 130.38 108.325C130.598 108.551 130.721 108.857 130.722 109.174V117.961C130.721 118.279 130.598 118.585 130.38 118.811C130.162 119.038 129.865 119.166 129.554 119.168H126.169V119.166C126.129 119.169 126.09 119.167 126.052 119.155C126.007 119.141 125.966 119.118 125.932 119.087C125.897 119.055 125.87 119.017 125.852 118.974C125.833 118.932 125.823 118.886 125.823 118.84C125.823 118.794 125.833 118.749 125.852 118.707C125.87 118.664 125.897 118.626 125.932 118.595C125.966 118.564 126.007 118.54 126.052 118.526C126.09 118.514 126.129 118.511 126.169 118.514H129.55C129.686 118.512 129.818 118.453 129.915 118.35C130.013 118.247 130.068 118.107 130.068 117.961V109.174C130.068 109.026 130.011 108.884 129.911 108.781C129.812 108.678 129.678 108.621 129.54 108.621H121.089L120.986 108.631C120.886 108.653 120.792 108.704 120.717 108.782C120.617 108.885 120.56 109.027 120.56 109.175V117.96C120.56 118.108 120.617 118.25 120.717 118.353C120.816 118.456 120.95 118.514 121.088 118.514H124.498L124.509 118.515C124.587 118.526 124.659 118.566 124.709 118.627C124.759 118.687 124.786 118.763 124.786 118.84C124.786 118.918 124.759 118.994 124.709 119.054C124.659 119.114 124.587 119.154 124.509 119.166L124.498 119.168H121.087C120.776 119.166 120.48 119.037 120.262 118.81C120.044 118.583 119.922 118.277 119.922 117.96V109.174C119.922 108.857 120.044 108.552 120.262 108.326C120.48 108.099 120.777 107.97 121.088 107.97H129.553Z" stroke="#C5C5C5" stroke-opacity="0.4" stroke-width="0.3" stroke-miterlimit="10"/>
<path d="M165.237 119.017H161.847C161.805 119.012 161.768 118.99 161.74 118.958C161.713 118.925 161.698 118.884 161.698 118.841C161.698 118.797 161.713 118.756 161.74 118.723C161.768 118.691 161.805 118.67 161.847 118.664H165.237C165.417 118.664 165.589 118.59 165.717 118.458C165.844 118.326 165.915 118.147 165.915 117.96V109.175C165.914 108.988 165.843 108.81 165.716 108.678C165.589 108.546 165.417 108.472 165.237 108.471H156.769C156.59 108.472 156.418 108.546 156.291 108.678C156.165 108.81 156.094 108.989 156.094 109.175V117.96C156.094 118.052 156.111 118.144 156.144 118.229C156.178 118.315 156.228 118.392 156.29 118.458C156.353 118.523 156.428 118.575 156.51 118.61C156.592 118.646 156.68 118.664 156.769 118.664H160.143C160.185 118.67 160.222 118.691 160.25 118.723C160.277 118.756 160.292 118.797 160.292 118.841C160.292 118.884 160.277 118.925 160.25 118.958C160.222 118.99 160.185 119.012 160.143 119.017H156.766C156.496 119.016 156.238 118.904 156.048 118.706C155.858 118.508 155.751 118.24 155.75 117.96V109.175C155.751 108.895 155.858 108.628 156.048 108.43C156.239 108.233 156.497 108.122 156.766 108.121H165.237C165.506 108.121 165.765 108.232 165.955 108.429C166.146 108.627 166.253 108.895 166.253 109.175V117.96C166.253 118.24 166.146 118.508 165.955 118.707C165.765 118.905 165.507 119.016 165.237 119.017Z" fill="#C5C5C5" fill-opacity="0.4"/>
<path d="M165.237 107.97C165.548 107.97 165.846 108.1 166.064 108.326C166.281 108.552 166.402 108.857 166.402 109.174V117.96C166.402 118.277 166.281 118.584 166.064 118.81C165.873 119.009 165.622 119.132 165.354 119.161L165.237 119.168H161.836L161.825 119.166C161.747 119.154 161.676 119.114 161.625 119.054C161.575 118.994 161.548 118.918 161.548 118.84C161.548 118.763 161.575 118.687 161.625 118.627C161.676 118.566 161.747 118.526 161.825 118.515L161.836 118.514H165.237C165.376 118.514 165.509 118.456 165.609 118.353C165.708 118.25 165.765 118.108 165.765 117.96V109.175L165.754 109.066C165.733 108.959 165.682 108.859 165.608 108.782C165.533 108.705 165.439 108.653 165.339 108.631L165.236 108.621H156.77L156.667 108.631C156.567 108.653 156.474 108.705 156.4 108.782C156.3 108.885 156.244 109.026 156.244 109.174V117.961C156.244 118.034 156.258 118.107 156.284 118.174C156.311 118.242 156.35 118.303 156.399 118.354C156.448 118.405 156.506 118.445 156.569 118.472C156.633 118.5 156.7 118.514 156.769 118.514H160.154L160.164 118.515C160.243 118.526 160.314 118.567 160.364 118.627C160.415 118.687 160.441 118.763 160.442 118.84C160.442 118.918 160.415 118.994 160.364 119.054C160.314 119.114 160.243 119.154 160.164 119.166L160.154 119.168H156.765C156.454 119.166 156.158 119.036 155.941 118.809C155.723 118.583 155.601 118.278 155.6 117.961V109.174L155.607 109.056C155.633 108.782 155.75 108.524 155.941 108.327C156.158 108.101 156.454 107.971 156.765 107.97H165.237Z" stroke="#C5C5C5" stroke-opacity="0.4" stroke-width="0.3" stroke-miterlimit="10"/>
<path d="M139.221 97.0952C139.245 97.0953 139.269 97.1003 139.29 97.11C139.312 97.1196 139.332 97.1337 139.349 97.1514L142.927 100.865C142.994 100.933 143.083 100.971 143.177 100.971C143.27 100.971 143.36 100.933 143.427 100.865L146.929 97.2307C146.963 97.1958 147.009 97.1762 147.058 97.1762C147.106 97.1762 147.152 97.1958 147.186 97.2307C147.22 97.2659 147.239 97.3134 147.239 97.3628C147.239 97.4123 147.22 97.4598 147.186 97.495L143.685 101.129C143.619 101.199 143.54 101.254 143.453 101.291C143.367 101.329 143.274 101.348 143.18 101.348C143.086 101.348 142.993 101.329 142.907 101.291C142.82 101.254 142.741 101.199 142.675 101.129L139.097 97.4157C139.064 97.3805 139.045 97.333 139.045 97.2835C139.045 97.2341 139.064 97.1866 139.097 97.1514C139.13 97.117 139.175 97.0969 139.221 97.0952Z" fill="#C5C5C5" fill-opacity="0.4"/>
<path d="M139.222 96.9448C139.266 96.945 139.31 96.9552 139.351 96.9731C139.391 96.9908 139.426 97.0167 139.456 97.0483L139.457 97.0474L143.034 100.76L143.065 100.787C143.099 100.809 143.138 100.821 143.177 100.821C143.229 100.821 143.28 100.8 143.319 100.76L146.82 97.1265L146.822 97.1255C146.884 97.0627 146.969 97.0259 147.058 97.0259C147.125 97.0259 147.189 97.0466 147.243 97.0835L147.293 97.1255L147.295 97.1274C147.355 97.1911 147.389 97.2757 147.389 97.3628C147.389 97.4499 147.355 97.5345 147.295 97.5981V97.5991L143.793 101.234L143.792 101.233C143.712 101.316 143.618 101.384 143.513 101.429C143.407 101.475 143.294 101.498 143.18 101.498C143.065 101.498 142.952 101.475 142.847 101.429C142.741 101.384 142.646 101.316 142.566 101.233V101.232L138.989 97.52L138.988 97.519C138.928 97.4554 138.895 97.3707 138.895 97.2837C138.895 97.1966 138.928 97.112 138.988 97.0483L138.989 97.0474C139.049 96.9857 139.129 96.949 139.216 96.9458L139.222 96.9448Z" stroke="#C5C5C5" stroke-opacity="0.4" stroke-width="0.3"/>
<path d="M147.062 75.2982C147.039 75.2981 147.015 75.2931 146.993 75.2835C146.971 75.2738 146.951 75.2597 146.935 75.242L143.357 71.5283C143.29 71.4603 143.2 71.4222 143.107 71.4222C143.013 71.4222 142.924 71.4603 142.857 71.5283L139.355 75.1628C139.32 75.1977 139.274 75.2172 139.226 75.2172C139.178 75.2172 139.132 75.1977 139.097 75.1628C139.064 75.1275 139.045 75.08 139.045 75.0306C139.045 74.9811 139.064 74.9337 139.097 74.8984L142.599 71.264C142.665 71.1948 142.744 71.1398 142.83 71.1023C142.917 71.0648 143.01 71.0455 143.104 71.0455C143.197 71.0455 143.29 71.0648 143.377 71.1023C143.464 71.1398 143.542 71.1948 143.608 71.264L147.186 74.9777C147.22 75.013 147.239 75.0604 147.239 75.1099C147.239 75.1593 147.22 75.2068 147.186 75.242C147.153 75.2764 147.109 75.2965 147.062 75.2982Z" fill="#C5C5C5" fill-opacity="0.4"/>
<path d="M147.062 75.4486C147.017 75.4485 146.974 75.4382 146.933 75.4203C146.893 75.4026 146.857 75.3767 146.827 75.3451L146.827 75.3461L143.249 71.6332L143.218 71.6068C143.185 71.5841 143.146 71.5726 143.107 71.5726C143.055 71.5726 143.003 71.5935 142.964 71.6332L139.463 75.267L139.461 75.2679C139.399 75.3307 139.315 75.3676 139.226 75.3676C139.159 75.3675 139.095 75.3468 139.04 75.3099L138.991 75.2679L138.989 75.266C138.928 75.2023 138.895 75.1177 138.895 75.0306C138.895 74.9435 138.928 74.8589 138.989 74.7953L138.989 74.7943L142.491 71.1595L142.492 71.1605C142.571 71.0772 142.666 71.0097 142.771 70.9642C142.876 70.9187 142.99 70.8959 143.104 70.8959C143.218 70.8959 143.332 70.9187 143.437 70.9642C143.542 71.0098 143.637 71.077 143.717 71.1605L143.717 71.1615L147.294 74.8734L147.295 74.8744C147.356 74.938 147.389 75.0227 147.389 75.1097C147.389 75.1968 147.356 75.2814 147.295 75.3451L147.294 75.3461C147.235 75.4078 147.154 75.4444 147.068 75.4476L147.062 75.4486Z" stroke="#C5C5C5" stroke-opacity="0.4" stroke-width="0.3"/>
<path d="M143.118 86.6313C143.339 86.6313 143.519 86.4449 143.519 86.215C143.519 85.9851 143.339 85.7987 143.118 85.7987C142.896 85.7987 142.717 85.9851 142.717 86.215C142.717 86.4449 142.896 86.6313 143.118 86.6313Z" fill="#C5C5C5" fill-opacity="0.4"/>
</g>
</g>
<defs>
<filter id="filter0_d_1098_11957" x="97.75" y="31.7" width="84.5486" height="125.104" filterUnits="userSpaceOnUse" color-interpolation-filters="sRGB">
<feFlood flood-opacity="0" result="BackgroundImageFix"/>
<feColorMatrix in="SourceAlpha" type="matrix" values="0 0 0 0 0 0 0 0 0 0 0 0 0 0 0 0 0 0 127 0" result="hardAlpha"/>
<feOffset dx="-3" dy="3"/>
<feGaussianBlur stdDeviation="2"/>
<feComposite in2="hardAlpha" operator="out"/>
<feColorMatrix type="matrix" values="0 0 0 0 0 0 0 0 0 0 0 0 0 0 0 0 0 0 0.25 0"/>
<feBlend mode="normal" in2="BackgroundImageFix" result="effect1_dropShadow_1098_11957"/>
<feBlend mode="normal" in="SourceGraphic" in2="effect1_dropShadow_1098_11957" result="shape"/>
</filter>
<clipPath id="clip0_1098_11957">
<rect width="76.5486" height="117.104" fill="white" transform="translate(104.75 32.7)"/>
</clipPath>
</defs>
</svg>
