<svg width="280" height="180" viewBox="0 0 280 180" fill="none" xmlns="http://www.w3.org/2000/svg">
<g filter="url(#filter0_d_1098_12041)">
<g clip-path="url(#clip0_1098_12041)">
<rect width="79.6528" height="117.857" transform="translate(97.5972 32.1428)" fill="white"/>
<rect x="97.5972" y="32.1428" width="79.6528" height="117.857" fill="black"/>
<path d="M110.135 40.3237C110.101 40.3237 110.066 40.3237 110.066 40.3237C109.929 40.2904 109.895 40.1907 109.861 40.0909C109.861 40.0576 109.861 40.0244 109.861 39.9911C109.861 39.3925 109.861 38.7939 109.861 38.1953C109.861 38.1288 109.861 38.0623 109.895 37.9958C109.929 37.896 109.998 37.8628 110.101 37.8628C110.203 37.8628 110.306 37.9293 110.34 38.0291C110.375 38.1288 110.375 38.2286 110.375 38.3284C110.375 38.4946 110.375 38.6609 110.375 38.7939C110.375 38.8272 110.375 38.8605 110.443 38.8605C110.752 38.8605 111.094 38.8605 111.403 38.8605C111.471 38.8605 111.471 38.8605 111.471 38.7939C111.471 38.5944 111.471 38.3949 111.471 38.1953C111.471 38.1288 111.471 38.0623 111.505 37.9958C111.54 37.896 111.642 37.8628 111.745 37.8628C111.814 37.8628 111.882 37.9293 111.916 38.0291C111.951 38.1288 111.951 38.2286 111.951 38.3284C111.951 38.5612 111.951 38.8272 111.951 39.06C111.951 39.3925 111.951 39.6918 111.951 40.0244C111.951 40.0909 111.951 40.1574 111.916 40.2239C111.882 40.3237 111.814 40.3569 111.711 40.3569C111.608 40.3569 111.54 40.3237 111.505 40.2239C111.471 40.1242 111.471 40.0244 111.471 39.9246C111.471 39.8249 111.471 39.6918 111.471 39.5921C111.471 39.4923 111.471 39.3925 111.471 39.2928C111.471 39.2595 111.437 39.2595 111.437 39.2595C111.265 39.2595 111.094 39.2595 110.923 39.2595C110.752 39.2595 110.58 39.2595 110.443 39.2595C110.409 39.2595 110.375 39.2595 110.375 39.2928C110.375 39.4258 110.375 39.5588 110.375 39.6918C110.375 39.8249 110.375 39.9579 110.375 40.0909C110.34 40.1907 110.272 40.2904 110.135 40.3237Z" fill="#C5C5C5" fill-opacity="0.3"/>
<path d="M105.578 38.0955C105.578 38.162 105.578 38.1953 105.578 38.2618C105.578 38.2951 105.578 38.2951 105.544 38.2951C105.339 38.4281 105.236 38.6276 105.202 38.8604C105.133 39.1264 105.167 39.3925 105.339 39.6585C105.441 39.8248 105.613 39.9246 105.818 39.9578C106.195 39.9911 106.469 39.7916 106.538 39.4923C106.606 39.2595 106.64 38.9934 106.538 38.7606C106.503 38.6276 106.401 38.5278 106.298 38.4281C106.229 38.3616 106.195 38.2951 106.195 38.2286C106.195 38.162 106.195 38.0623 106.195 37.9958C106.195 37.9293 106.195 37.9293 106.264 37.9625C106.469 37.9958 106.64 38.0955 106.778 38.2618C106.949 38.4613 107.017 38.6941 107.052 38.9269C107.086 39.1597 107.052 39.3925 106.983 39.6253C106.812 40.0243 106.538 40.2571 106.092 40.3236C105.818 40.3569 105.544 40.3569 105.304 40.2571C104.962 40.1241 104.79 39.8581 104.688 39.5588C104.653 39.1264 104.653 38.7939 104.825 38.4613C104.928 38.2951 105.03 38.1288 105.202 37.9958C105.304 37.9293 105.407 37.896 105.51 37.896C105.544 37.896 105.578 37.896 105.578 37.9293C105.578 37.9958 105.578 38.029 105.578 38.0955Z" fill="#C5C5C5" fill-opacity="0.3"/>
<path d="M103.489 40.3237C103.454 40.3237 103.386 40.3237 103.352 40.3237C103.146 40.3237 102.94 40.2572 102.769 40.1574C102.598 40.0577 102.495 39.8914 102.461 39.6919C102.427 39.5588 102.529 39.4591 102.632 39.4258C102.701 39.4258 102.735 39.4258 102.769 39.4591C102.803 39.4923 102.838 39.5256 102.838 39.5588C102.872 39.6253 102.906 39.6919 102.94 39.7584C103.009 39.8914 103.112 39.9579 103.283 39.9912C103.42 40.0244 103.591 39.9912 103.728 39.9246C103.797 39.8914 103.865 39.8249 103.9 39.7584C103.934 39.6586 103.934 39.5921 103.865 39.5256C103.797 39.4258 103.66 39.3593 103.557 39.3261C103.386 39.2595 103.215 39.2595 103.043 39.193C102.906 39.1598 102.769 39.0933 102.666 38.9935C102.427 38.7607 102.427 38.3949 102.632 38.1621C102.701 38.0956 102.803 38.0291 102.906 37.9958C103.283 37.8296 103.66 37.8296 104.002 38.0291C104.14 38.1289 104.242 38.2286 104.277 38.3949C104.311 38.5279 104.242 38.6277 104.14 38.6609C104.071 38.6942 104.002 38.6609 103.968 38.6277C103.9 38.5612 103.865 38.4947 103.831 38.4282C103.831 38.3949 103.797 38.3949 103.797 38.3616C103.728 38.2619 103.626 38.1954 103.523 38.1621C103.352 38.1289 103.215 38.1621 103.077 38.2619C102.94 38.3616 102.94 38.5279 103.077 38.6277C103.18 38.6942 103.317 38.7275 103.42 38.7607C103.626 38.8272 103.831 38.8605 104.002 38.9602C104.174 39.0268 104.311 39.1265 104.379 39.2928C104.482 39.5588 104.414 39.9912 103.968 40.1907C103.797 40.2572 103.626 40.2905 103.489 40.3237Z" fill="#C5C5C5" fill-opacity="0.3"/>
<path d="M112.499 39.3592C112.499 39.1264 112.499 38.9269 112.499 38.6941C112.499 38.5278 112.465 38.3948 112.499 38.2285C112.499 38.1288 112.499 38.029 112.533 37.9625C112.567 37.8627 112.636 37.8295 112.739 37.8295C112.841 37.8295 112.91 37.8627 112.978 37.9625C113.013 38.0623 113.047 38.162 113.047 38.2285C113.047 38.3948 113.047 38.5611 113.047 38.7274C113.047 38.9269 113.047 39.1264 113.047 39.326C113.047 39.5587 113.047 39.7915 113.047 39.9911C113.047 40.0576 113.047 40.0908 113.013 40.1573C112.978 40.2239 112.91 40.2904 112.807 40.2904C112.636 40.2904 112.533 40.2239 112.533 40.0243C112.499 39.8248 112.499 39.592 112.499 39.3592Z" fill="#C5C5C5" fill-opacity="0.3"/>
<path d="M112.739 36.5658C112.396 36.5658 112.088 36.6656 111.848 36.8651C111.745 36.9649 111.745 36.9316 111.677 36.8651C111.574 36.7986 111.608 36.7653 111.677 36.6988C111.882 36.5325 112.122 36.3995 112.396 36.3663C112.944 36.2665 113.39 36.3995 113.801 36.7321C113.869 36.7653 113.869 36.7986 113.801 36.8318C113.766 36.8651 113.766 36.8651 113.732 36.8984C113.698 36.9316 113.664 36.9316 113.629 36.8984C113.595 36.8651 113.561 36.8651 113.527 36.8318C113.321 36.6656 113.115 36.5991 112.841 36.5658C112.807 36.5658 112.807 36.5658 112.773 36.5658C112.773 36.5991 112.773 36.5991 112.739 36.5658Z" fill="#C5C5C5" fill-opacity="0.3"/>
<path d="M106.092 37.7297C106.092 37.8627 106.092 38.029 106.092 38.162C106.092 38.2951 106.092 38.4281 106.058 38.5611C106.058 38.6276 106.024 38.6609 105.99 38.7274C105.955 38.7606 105.921 38.7606 105.853 38.7606C105.784 38.7606 105.784 38.6941 105.75 38.6609C105.715 38.6276 105.715 38.5611 105.715 38.5278C105.715 38.2618 105.681 37.9958 105.681 37.7297C105.681 37.6632 105.681 37.63 105.715 37.5634C105.75 37.4637 105.818 37.4304 105.921 37.4304C105.99 37.4304 106.058 37.4969 106.092 37.5634C106.092 37.63 106.127 37.6965 106.092 37.7297Z" fill="#C5C5C5" fill-opacity="0.3"/>
<path d="M112.67 36.8318C112.944 36.8318 113.184 36.8983 113.39 37.0646C113.492 37.1311 113.492 37.1976 113.39 37.2641C113.355 37.2974 113.321 37.2974 113.287 37.2641C113.218 37.1976 113.15 37.1643 113.047 37.1311C112.739 37.0313 112.465 37.0313 112.19 37.2309C112.156 37.2641 112.122 37.2641 112.122 37.2974C112.088 37.2974 112.088 37.2974 112.053 37.2974C112.019 37.2641 111.985 37.2309 111.951 37.1976C111.916 37.1643 111.916 37.1311 111.951 37.1311C112.122 36.9981 112.293 36.8983 112.533 36.865C112.567 36.8318 112.636 36.8318 112.67 36.8318Z" fill="#C5C5C5" fill-opacity="0.3"/>
<path d="M112.704 37.3307C112.807 37.3307 112.876 37.3307 112.978 37.3972C113.013 37.3972 113.013 37.4305 113.013 37.4305C113.081 37.4637 113.081 37.5302 113.013 37.5967C112.944 37.6632 112.944 37.6632 112.841 37.63C112.704 37.5635 112.602 37.5635 112.465 37.63C112.43 37.6632 112.396 37.6632 112.362 37.63C112.327 37.5967 112.327 37.5967 112.293 37.5635C112.259 37.5302 112.259 37.497 112.293 37.4637C112.465 37.3639 112.567 37.3639 112.704 37.3307Z" fill="#C5C5C5" fill-opacity="0.3"/>
<path d="M115.685 40.0244C115.651 39.9911 115.651 40.0244 115.685 40.0244C115.651 39.8581 115.582 39.7251 115.514 39.5921C115.308 39.0932 115.102 38.6277 114.897 38.1288C114.863 38.0623 114.828 37.9958 114.794 37.9626C114.657 37.763 114.383 37.763 114.246 37.9293C114.177 37.9958 114.143 38.0623 114.109 38.1621C113.938 38.6609 113.698 39.1598 113.527 39.6586C113.458 39.7916 113.424 39.9246 113.39 40.0577C113.39 40.1242 113.39 40.1907 113.458 40.2572C113.492 40.2904 113.527 40.2904 113.561 40.3237C113.595 40.3237 113.595 40.3237 113.629 40.3237C113.698 40.3237 113.732 40.2904 113.766 40.2572C113.801 40.2239 113.835 40.1574 113.869 40.0909C113.903 39.9911 113.938 39.8914 113.972 39.7916C113.972 39.7584 114.006 39.7251 114.04 39.7251C114.315 39.7251 114.589 39.7251 114.863 39.7251C114.897 39.7251 114.897 39.7251 114.931 39.7251C114.965 39.7251 115 39.7584 115 39.7916C115 39.8249 115.034 39.8581 115.034 39.8914C115.068 39.9911 115.102 40.0909 115.171 40.1907C115.205 40.2572 115.24 40.3237 115.342 40.3237C115.377 40.3237 115.411 40.3237 115.445 40.3237C115.582 40.3237 115.616 40.2572 115.616 40.1574V40.1242C115.685 40.0909 115.685 40.0909 115.685 40.0244C115.685 40.0577 115.685 40.0577 115.685 40.0244ZM114.794 39.3593C114.589 39.3593 114.417 39.3593 114.212 39.3593C114.143 39.3593 114.143 39.3593 114.177 39.2928C114.28 39.0267 114.349 38.7274 114.486 38.4614C114.486 38.4281 114.486 38.4281 114.52 38.3949C114.589 38.5279 114.623 38.6609 114.691 38.7607C114.76 38.927 114.828 39.0932 114.863 39.2595C114.863 39.326 114.863 39.3593 114.794 39.3593Z" fill="#C5C5C5" fill-opacity="0.3"/>
<path d="M109.415 38.4614C109.381 38.1953 109.21 37.9958 108.936 37.896C108.799 37.8628 108.628 37.8628 108.49 37.8628C108.353 37.8628 108.251 37.8628 108.114 37.8628C108.011 37.8628 107.908 37.8628 107.805 37.8628C107.771 37.8628 107.737 37.8628 107.703 37.896C107.634 37.9293 107.565 37.9626 107.531 38.0623C107.497 38.1288 107.531 38.2286 107.531 38.2951C107.531 38.7607 107.531 39.2263 107.531 39.6918C107.531 39.8249 107.531 39.9246 107.531 40.0576C107.531 40.1574 107.565 40.2572 107.668 40.2904C107.703 40.2904 107.737 40.2904 107.771 40.2904C107.874 40.2572 107.942 40.1907 107.977 40.0909C108.011 40.0244 108.011 39.9246 108.011 39.8581C108.011 39.6918 108.011 39.5588 108.011 39.3925C108.011 39.326 108.011 39.326 108.079 39.326C108.216 39.326 108.319 39.326 108.456 39.326C108.593 39.326 108.73 39.326 108.867 39.2928C109.073 39.2263 109.21 39.1598 109.278 38.9602C109.415 38.7939 109.415 38.6277 109.415 38.4614ZM108.662 38.9602C108.525 38.9935 108.388 38.9935 108.251 38.9935C108.182 38.9935 108.148 38.9935 108.079 38.9935C108.045 38.9935 108.045 38.9935 108.045 38.9602C108.045 38.7274 108.045 38.5279 108.045 38.2951C108.045 38.2619 108.045 38.2619 108.079 38.2619C108.251 38.2619 108.422 38.2619 108.559 38.2619C108.662 38.2619 108.765 38.2951 108.833 38.3949C109.004 38.5612 108.902 38.8937 108.662 38.9602Z" fill="#C5C5C5" fill-opacity="0.3"/>
<path fill-rule="evenodd" clip-rule="evenodd" d="M112.389 135.243L111.055 135.999C110.728 136.184 110.356 136.282 109.976 136.282H109.448V138.261H109.976C110.356 138.261 110.728 138.358 111.055 138.544L112.389 139.299V135.243ZM112.34 134.834C112.534 134.723 112.779 134.86 112.779 135.079V139.464C112.779 139.683 112.534 139.819 112.34 139.709L110.859 138.871C110.591 138.719 110.287 138.639 109.976 138.639H109.448C109.233 138.639 109.059 138.47 109.059 138.261V136.282C109.059 136.073 109.233 135.904 109.448 135.904H109.976C110.287 135.904 110.591 135.824 110.859 135.672L112.34 134.834Z" fill="#C5C5C5" fill-opacity="0.4"/>
<path fill-rule="evenodd" clip-rule="evenodd" d="M113.222 136.486C113.222 136.381 113.309 136.297 113.417 136.297C113.979 136.297 114.444 136.728 114.444 137.271C114.444 137.815 113.979 138.246 113.417 138.246C113.309 138.246 113.222 138.162 113.222 138.057C113.222 137.953 113.309 137.868 113.417 137.868C113.774 137.868 114.055 137.596 114.055 137.271C114.055 136.947 113.774 136.675 113.417 136.675C113.309 136.675 113.222 136.59 113.222 136.486Z" fill="#C5C5C5" fill-opacity="0.4"/>
<path fill-rule="evenodd" clip-rule="evenodd" d="M113.222 135.7C113.222 135.596 113.309 135.511 113.417 135.511C114.439 135.511 115.277 136.294 115.277 137.271C115.277 138.249 114.439 139.032 113.417 139.032C113.309 139.032 113.222 138.947 113.222 138.843C113.222 138.738 113.309 138.654 113.417 138.654C114.234 138.654 114.887 138.03 114.887 137.271C114.887 136.513 114.234 135.889 113.417 135.889C113.309 135.889 113.222 135.805 113.222 135.7Z" fill="#C5C5C5" fill-opacity="0.4"/>
<path fill-rule="evenodd" clip-rule="evenodd" d="M136.916 137.034C136.809 137.024 136.73 136.932 136.74 136.828C136.758 136.644 136.806 136.374 136.987 136.138C137.175 135.894 137.486 135.712 137.974 135.669C138.081 135.659 138.176 135.736 138.186 135.84C138.196 135.944 138.117 136.036 138.01 136.045C137.612 136.081 137.41 136.22 137.299 136.364C137.182 136.516 137.144 136.701 137.128 136.863C137.118 136.967 137.023 137.044 136.916 137.034Z" fill="#C5C5C5" fill-opacity="0.4"/>
<path fill-rule="evenodd" clip-rule="evenodd" d="M137.906 135.293C137.048 135.293 136.353 135.968 136.353 136.8C136.353 137.256 136.447 137.618 136.632 137.865C136.656 137.898 136.682 137.932 136.709 137.967C136.826 138.12 136.961 138.298 137.069 138.481C137.206 138.714 137.324 138.994 137.324 139.317V139.722H138.488V139.337C138.488 139.01 138.609 138.728 138.748 138.493C138.852 138.319 138.982 138.146 139.094 137.998C139.127 137.954 139.159 137.912 139.188 137.873C139.369 137.627 139.459 137.263 139.459 136.8C139.459 135.968 138.764 135.293 137.906 135.293ZM135.963 136.8C135.963 135.758 136.833 134.914 137.906 134.914C138.979 134.914 139.849 135.758 139.849 136.8C139.849 137.301 139.753 137.756 139.504 138.093C139.47 138.14 139.435 138.187 139.399 138.234C139.144 138.572 138.877 138.926 138.877 139.337V139.911C138.877 140.015 138.79 140.1 138.682 140.1H137.129C137.022 140.1 136.934 140.015 136.934 139.911V139.317C136.934 138.9 136.662 138.541 136.402 138.2C136.374 138.163 136.345 138.125 136.317 138.088C136.065 137.751 135.963 137.298 135.963 136.8Z" fill="#C5C5C5" fill-opacity="0.4"/>
<path d="M201.965 38.6614L171.597 177.709L117.51 3.58942L201.965 38.6614Z" fill="#282828"/>
<path d="M145.453 72.6859H139.037C138.952 72.6859 138.87 72.6516 138.81 72.5905C138.75 72.5295 138.717 72.4467 138.717 72.3603C138.717 72.274 138.75 72.1912 138.81 72.1302C138.87 72.0691 138.952 72.0348 139.037 72.0348H145.453C145.791 72.0366 146.116 71.9039 146.358 71.6651C146.601 71.4264 146.742 71.1005 146.752 70.7573V54.3951C146.752 54.2223 146.718 54.0511 146.653 53.8916C146.587 53.7321 146.492 53.5873 146.371 53.4657C146.25 53.344 146.107 53.2479 145.949 53.1829C145.792 53.1179 145.623 53.0853 145.453 53.0869H129.4C129.059 53.0869 128.732 53.2247 128.49 53.47C128.249 53.7154 128.113 54.0481 128.113 54.3951V70.7573C128.113 71.1043 128.249 71.437 128.49 71.6823C128.732 71.9277 129.059 72.0655 129.4 72.0655H135.823C135.908 72.0655 135.989 72.0998 136.049 72.1609C136.109 72.2219 136.143 72.3047 136.143 72.391C136.143 72.4774 136.109 72.5602 136.049 72.6212C135.989 72.6823 135.908 72.7166 135.823 72.7166H129.4C128.889 72.7166 128.398 72.5103 128.035 72.1431C127.673 71.7758 127.469 71.2775 127.467 70.7573V54.3951C127.469 53.8743 127.673 53.3754 128.035 53.0071C128.397 52.6389 128.888 52.4313 129.4 52.4297H145.453C145.965 52.4313 146.455 52.6391 146.816 53.0075C147.177 53.3759 147.38 53.8749 147.38 54.3951V70.7573C147.372 71.2716 147.166 71.7621 146.805 72.1229C146.445 72.4837 145.959 72.6859 145.453 72.6859Z" fill="#767272"/>
<path d="M145.453 118.09H139.037C138.952 118.09 138.87 118.056 138.81 117.995C138.75 117.934 138.717 117.851 138.717 117.764C138.717 117.678 138.75 117.595 138.81 117.534C138.87 117.473 138.952 117.439 139.037 117.439H145.453C145.791 117.441 146.116 117.308 146.358 117.069C146.601 116.83 146.742 116.505 146.752 116.161V99.7992C146.752 99.6263 146.718 99.4552 146.653 99.2957C146.587 99.1361 146.492 98.9914 146.371 98.8697C146.25 98.7481 146.107 98.652 145.949 98.587C145.792 98.5219 145.623 98.4893 145.453 98.4909H129.4C129.059 98.4909 128.732 98.6288 128.49 98.8741C128.249 99.1194 128.113 99.4522 128.113 99.7992V116.161C128.113 116.508 128.249 116.841 128.49 117.086C128.732 117.332 129.059 117.47 129.4 117.47H135.823C135.908 117.47 135.989 117.504 136.049 117.565C136.109 117.626 136.143 117.709 136.143 117.795C136.143 117.881 136.109 117.964 136.049 118.025C135.989 118.086 135.908 118.121 135.823 118.121H129.4C128.889 118.121 128.398 117.914 128.035 117.547C127.673 117.18 127.469 116.682 127.467 116.161V99.7992C127.469 99.2784 127.673 98.7794 128.035 98.4112C128.397 98.043 128.888 97.8354 129.4 97.8337H145.453C145.965 97.8354 146.455 98.0432 146.816 98.4116C147.177 98.78 147.38 99.279 147.38 99.7992V116.161C147.372 116.676 147.166 117.166 146.805 117.527C146.445 117.888 145.959 118.09 145.453 118.09Z" fill="#767272"/>
<path fill-rule="evenodd" clip-rule="evenodd" d="M160.542 135.857C160.542 135.753 160.629 135.668 160.737 135.668H165.593C165.701 135.668 165.788 135.753 165.788 135.857C165.788 135.962 165.701 136.046 165.593 136.046H160.737C160.629 136.046 160.542 135.962 160.542 135.857Z" fill="#C5C5C5" fill-opacity="0.4"/>
<path fill-rule="evenodd" clip-rule="evenodd" d="M160.542 134.914C160.542 134.81 160.629 134.725 160.737 134.725H165.593C165.701 134.725 165.788 134.81 165.788 134.914C165.788 135.019 165.701 135.103 165.593 135.103H160.737C160.629 135.103 160.542 135.019 160.542 134.914Z" fill="#C5C5C5" fill-opacity="0.4"/>
<path fill-rule="evenodd" clip-rule="evenodd" d="M160.542 136.8C160.542 136.696 160.629 136.611 160.737 136.611H165.593C165.701 136.611 165.788 136.696 165.788 136.8C165.788 136.904 165.701 136.989 165.593 136.989H160.737C160.629 136.989 160.542 136.904 160.542 136.8Z" fill="#C5C5C5" fill-opacity="0.4"/>
<path fill-rule="evenodd" clip-rule="evenodd" d="M160.542 137.743C160.542 137.638 160.629 137.554 160.737 137.554H165.593C165.701 137.554 165.788 137.638 165.788 137.743C165.788 137.847 165.701 137.932 165.593 137.932H160.737C160.629 137.932 160.542 137.847 160.542 137.743Z" fill="#C5C5C5" fill-opacity="0.4"/>
<path fill-rule="evenodd" clip-rule="evenodd" d="M160.542 138.686C160.542 138.581 160.629 138.497 160.737 138.497H165.584C165.697 138.497 165.788 138.586 165.788 138.695V139.629C165.788 139.733 165.701 139.818 165.593 139.818C165.486 139.818 165.399 139.733 165.399 139.629V138.875H160.737C160.629 138.875 160.542 138.79 160.542 138.686Z" fill="#C5C5C5" fill-opacity="0.4"/>
</g>
</g>
<defs>
<filter id="filter0_d_1098_12041" x="90.5972" y="31.1428" width="87.6528" height="125.857" filterUnits="userSpaceOnUse" color-interpolation-filters="sRGB">
<feFlood flood-opacity="0" result="BackgroundImageFix"/>
<feColorMatrix in="SourceAlpha" type="matrix" values="0 0 0 0 0 0 0 0 0 0 0 0 0 0 0 0 0 0 127 0" result="hardAlpha"/>
<feOffset dx="-3" dy="3"/>
<feGaussianBlur stdDeviation="2"/>
<feComposite in2="hardAlpha" operator="out"/>
<feColorMatrix type="matrix" values="0 0 0 0 0 0 0 0 0 0 0 0 0 0 0 0 0 0 0.25 0"/>
<feBlend mode="normal" in2="BackgroundImageFix" result="effect1_dropShadow_1098_12041"/>
<feBlend mode="normal" in="SourceGraphic" in2="effect1_dropShadow_1098_12041" result="shape"/>
</filter>
<clipPath id="clip0_1098_12041">
<rect width="79.6528" height="117.857" fill="white" transform="translate(97.5972 32.1428)"/>
</clipPath>
</defs>
</svg>
