<svg width="280" height="180" viewBox="0 0 280 180" fill="none" xmlns="http://www.w3.org/2000/svg">
<g filter="url(#filter0_d_1098_12002)">
<g clip-path="url(#clip0_1098_12002)">
<rect width="77.0833" height="119.774" transform="translate(101.958 30.8572)" fill="#FBFBFB"/>
<rect x="101.958" y="30.8572" width="77.0833" height="119.774" fill="#FBFBFB"/>
<path d="M114.092 39.171C114.058 39.171 114.025 39.171 114.025 39.171C113.893 39.1372 113.859 39.0358 113.826 38.9344C113.826 38.9006 113.826 38.8668 113.826 38.833C113.826 38.2247 113.826 37.6163 113.826 37.008C113.826 36.9404 113.826 36.8728 113.859 36.8052C113.893 36.7038 113.959 36.67 114.058 36.67C114.158 36.67 114.257 36.7376 114.29 36.839C114.324 36.9404 114.324 37.0418 114.324 37.1432C114.324 37.3122 114.324 37.4812 114.324 37.6163C114.324 37.6501 114.324 37.6839 114.39 37.6839C114.688 37.6839 115.02 37.6839 115.318 37.6839C115.385 37.6839 115.385 37.6839 115.385 37.6163C115.385 37.4136 115.385 37.2108 115.385 37.008C115.385 36.9404 115.385 36.8728 115.418 36.8052C115.451 36.7038 115.55 36.67 115.65 36.67C115.716 36.67 115.782 36.7376 115.816 36.839C115.849 36.9404 115.849 37.0418 115.849 37.1432C115.849 37.3798 115.849 37.6501 115.849 37.8867C115.849 38.2247 115.849 38.5288 115.849 38.8668C115.849 38.9344 115.849 39.002 115.816 39.0696C115.782 39.171 115.716 39.2048 115.617 39.2048C115.517 39.2048 115.451 39.171 115.418 39.0696C115.385 38.9682 115.385 38.8668 115.385 38.7654C115.385 38.664 115.385 38.5288 115.385 38.4275C115.385 38.3261 115.385 38.2247 115.385 38.1233C115.385 38.0895 115.351 38.0895 115.351 38.0895C115.186 38.0895 115.02 38.0895 114.854 38.0895C114.688 38.0895 114.523 38.0895 114.39 38.0895C114.357 38.0895 114.324 38.0895 114.324 38.1233C114.324 38.2585 114.324 38.3937 114.324 38.5288C114.324 38.664 114.324 38.7992 114.324 38.9344C114.29 39.0358 114.224 39.1372 114.092 39.171Z" fill="#C2C2C2"/>
<path d="M109.682 36.9066C109.682 36.9742 109.682 37.008 109.682 37.0756C109.682 37.1094 109.682 37.1094 109.649 37.1094C109.45 37.2446 109.351 37.4474 109.317 37.684C109.251 37.9543 109.284 38.2247 109.45 38.4951C109.549 38.664 109.715 38.7654 109.914 38.7992C110.279 38.833 110.544 38.6303 110.61 38.3261C110.677 38.0895 110.71 37.8191 110.61 37.5826C110.577 37.4474 110.478 37.346 110.378 37.2446C110.312 37.177 110.279 37.1094 110.279 37.0418C110.279 36.9742 110.279 36.8728 110.279 36.8052C110.279 36.7377 110.279 36.7377 110.345 36.7715C110.544 36.8052 110.71 36.9066 110.842 37.0756C111.008 37.2784 111.075 37.515 111.108 37.7515C111.141 37.9881 111.108 38.2247 111.041 38.4613C110.876 38.8668 110.61 39.1034 110.179 39.171C109.914 39.2048 109.649 39.2048 109.417 39.1034C109.085 38.9682 108.92 38.6978 108.82 38.3937C108.787 37.9543 108.787 37.6164 108.953 37.2784C109.052 37.1094 109.152 36.9404 109.317 36.8052C109.417 36.7377 109.516 36.7039 109.616 36.7039C109.649 36.7039 109.682 36.7039 109.682 36.7377C109.682 36.8052 109.682 36.839 109.682 36.9066Z" fill="#C2C2C2"/>
<path d="M107.66 39.171C107.627 39.171 107.56 39.171 107.527 39.171C107.328 39.171 107.129 39.1035 106.963 39.0021C106.798 38.9007 106.698 38.7317 106.665 38.5289C106.632 38.3937 106.731 38.2923 106.831 38.2585C106.897 38.2585 106.93 38.2585 106.963 38.2923C106.997 38.3261 107.03 38.3599 107.03 38.3937C107.063 38.4613 107.096 38.5289 107.129 38.5965C107.196 38.7317 107.295 38.7993 107.461 38.8331C107.593 38.8669 107.759 38.8331 107.892 38.7655C107.958 38.7317 108.024 38.6641 108.058 38.5965C108.091 38.4951 108.091 38.4275 108.024 38.3599C107.958 38.2585 107.825 38.1909 107.726 38.1572C107.56 38.0896 107.394 38.0896 107.229 38.022C107.096 37.9882 106.963 37.9206 106.864 37.8192C106.632 37.5826 106.632 37.2109 106.831 36.9743C106.897 36.9067 106.997 36.8391 107.096 36.8053C107.461 36.6363 107.825 36.6363 108.157 36.8391C108.29 36.9405 108.389 37.0419 108.422 37.2109C108.455 37.346 108.389 37.4474 108.29 37.4812C108.223 37.515 108.157 37.4812 108.124 37.4474C108.058 37.3798 108.024 37.3122 107.991 37.2446C107.991 37.2109 107.958 37.2109 107.958 37.1771C107.892 37.0757 107.792 37.0081 107.693 36.9743C107.527 36.9405 107.394 36.9743 107.262 37.0757C107.129 37.1771 107.129 37.346 107.262 37.4474C107.361 37.515 107.494 37.5488 107.593 37.5826C107.792 37.6502 107.991 37.684 108.157 37.7854C108.323 37.853 108.455 37.9544 108.522 38.1234C108.621 38.3937 108.555 38.8331 108.124 39.0359C107.958 39.1035 107.792 39.1372 107.66 39.171Z" fill="#C2C2C2"/>
<path d="M116.379 38.191C116.379 37.9544 116.379 37.7516 116.379 37.5151C116.379 37.3461 116.346 37.2109 116.379 37.0419C116.379 36.9405 116.379 36.8391 116.412 36.7715C116.445 36.6701 116.512 36.6364 116.611 36.6364C116.711 36.6364 116.777 36.6701 116.843 36.7715C116.877 36.8729 116.91 36.9743 116.91 37.0419C116.91 37.2109 116.91 37.3799 116.91 37.5489C116.91 37.7516 116.91 37.9544 116.91 38.1572C116.91 38.3938 116.91 38.6303 116.91 38.8331C116.91 38.9007 116.91 38.9345 116.877 39.0021C116.843 39.0697 116.777 39.1373 116.678 39.1373C116.512 39.1373 116.412 39.0697 116.412 38.8669C116.379 38.6641 116.379 38.4276 116.379 38.191Z" fill="#C2C2C2"/>
<path d="M116.611 35.352C116.28 35.352 115.981 35.4534 115.749 35.6562C115.65 35.7576 115.65 35.7238 115.583 35.6562C115.484 35.5886 115.517 35.5548 115.583 35.4872C115.782 35.3182 116.014 35.1831 116.28 35.1493C116.81 35.0479 117.241 35.1831 117.639 35.521C117.705 35.5548 117.705 35.5886 117.639 35.6224C117.606 35.6562 117.606 35.6562 117.573 35.69C117.54 35.7238 117.506 35.7238 117.473 35.69C117.44 35.6562 117.407 35.6562 117.374 35.6224C117.175 35.4534 116.976 35.3858 116.711 35.352C116.678 35.352 116.678 35.352 116.644 35.352C116.644 35.3858 116.644 35.3858 116.611 35.352Z" fill="#C2C2C2"/>
<path d="M110.179 36.5349C110.179 36.6701 110.179 36.839 110.179 36.9742C110.179 37.1094 110.179 37.2446 110.146 37.3798C110.146 37.4474 110.113 37.4812 110.08 37.5488C110.047 37.5826 110.014 37.5826 109.947 37.5826C109.881 37.5826 109.881 37.515 109.848 37.4812C109.815 37.4474 109.815 37.3798 109.815 37.346C109.815 37.0756 109.782 36.8053 109.782 36.5349C109.782 36.4673 109.782 36.4335 109.815 36.3659C109.848 36.2645 109.914 36.2307 110.014 36.2307C110.08 36.2307 110.146 36.2983 110.179 36.3659C110.179 36.4335 110.213 36.5011 110.179 36.5349Z" fill="#C2C2C2"/>
<path d="M116.545 35.6224C116.81 35.6224 117.042 35.69 117.241 35.859C117.341 35.9266 117.341 35.9942 117.241 36.0618C117.208 36.0956 117.175 36.0956 117.142 36.0618C117.075 35.9942 117.009 35.9604 116.91 35.9266C116.611 35.8252 116.346 35.8252 116.081 36.028C116.048 36.0618 116.014 36.0618 116.014 36.0956C115.981 36.0956 115.981 36.0956 115.948 36.0956C115.915 36.0618 115.882 36.028 115.849 35.9942C115.816 35.9604 115.816 35.9266 115.849 35.9266C116.014 35.7914 116.18 35.69 116.412 35.6562C116.445 35.6224 116.512 35.6224 116.545 35.6224Z" fill="#C2C2C2"/>
<path d="M116.578 36.1294C116.678 36.1294 116.744 36.1294 116.843 36.197C116.877 36.197 116.877 36.2308 116.877 36.2308C116.943 36.2646 116.943 36.3322 116.877 36.3998C116.81 36.4674 116.81 36.4674 116.711 36.4336C116.578 36.366 116.479 36.366 116.346 36.4336C116.313 36.4674 116.28 36.4674 116.247 36.4336C116.213 36.3998 116.213 36.3998 116.18 36.366C116.147 36.3322 116.147 36.2984 116.18 36.2646C116.346 36.1632 116.446 36.1632 116.578 36.1294Z" fill="#C2C2C2"/>
<path d="M119.463 38.8668C119.429 38.833 119.429 38.8668 119.463 38.8668C119.429 38.6979 119.363 38.5627 119.297 38.4275C119.098 37.9205 118.899 37.4474 118.7 36.9404C118.667 36.8729 118.634 36.8053 118.601 36.7715C118.468 36.5687 118.203 36.5687 118.07 36.7377C118.004 36.8053 117.971 36.8729 117.937 36.9742C117.772 37.4812 117.54 37.9881 117.374 38.4951C117.308 38.6303 117.274 38.7655 117.241 38.9006C117.241 38.9682 117.241 39.0358 117.308 39.1034C117.341 39.1372 117.374 39.1372 117.407 39.171C117.44 39.171 117.44 39.171 117.473 39.171C117.54 39.171 117.573 39.1372 117.606 39.1034C117.639 39.0696 117.672 39.002 117.705 38.9344C117.739 38.833 117.772 38.7317 117.805 38.6303C117.805 38.5965 117.838 38.5627 117.871 38.5627C118.136 38.5627 118.402 38.5627 118.667 38.5627C118.7 38.5627 118.7 38.5627 118.733 38.5627C118.766 38.5627 118.799 38.5965 118.799 38.6303C118.799 38.6641 118.833 38.6979 118.833 38.7317C118.866 38.833 118.899 38.9344 118.965 39.0358C118.998 39.1034 119.032 39.171 119.131 39.171C119.164 39.171 119.197 39.171 119.23 39.171C119.363 39.171 119.396 39.1034 119.396 39.002V38.9682C119.463 38.9344 119.463 38.9344 119.463 38.8668C119.463 38.9006 119.463 38.9006 119.463 38.8668ZM118.601 38.1909C118.402 38.1909 118.236 38.1909 118.037 38.1909C117.971 38.1909 117.971 38.1909 118.004 38.1233C118.103 37.8529 118.17 37.5488 118.302 37.2784C118.302 37.2446 118.302 37.2446 118.335 37.2108C118.402 37.346 118.435 37.4812 118.501 37.5826C118.567 37.7516 118.634 37.9205 118.667 38.0895C118.667 38.1571 118.667 38.1909 118.601 38.1909Z" fill="#C2C2C2"/>
<path d="M113.395 37.2784C113.362 37.008 113.196 36.8052 112.931 36.7038C112.799 36.67 112.633 36.67 112.5 36.67C112.368 36.67 112.268 36.67 112.135 36.67C112.036 36.67 111.937 36.67 111.837 36.67C111.804 36.67 111.771 36.67 111.738 36.7038C111.671 36.7376 111.605 36.7714 111.572 36.8728C111.539 36.9404 111.572 37.0418 111.572 37.1094C111.572 37.5825 111.572 38.0557 111.572 38.5288C111.572 38.664 111.572 38.7654 111.572 38.9006C111.572 39.002 111.605 39.1034 111.704 39.1372C111.738 39.1372 111.771 39.1372 111.804 39.1372C111.903 39.1034 111.97 39.0358 112.003 38.9344C112.036 38.8668 112.036 38.7654 112.036 38.6978C112.036 38.5288 112.036 38.3937 112.036 38.2247C112.036 38.1571 112.036 38.1571 112.102 38.1571C112.235 38.1571 112.334 38.1571 112.467 38.1571C112.6 38.1571 112.732 38.1571 112.865 38.1233C113.064 38.0557 113.196 37.9881 113.263 37.7853C113.395 37.6163 113.395 37.4474 113.395 37.2784ZM112.666 37.7853C112.533 37.8191 112.401 37.8191 112.268 37.8191C112.202 37.8191 112.169 37.8191 112.102 37.8191C112.069 37.8191 112.069 37.8191 112.069 37.7853C112.069 37.5487 112.069 37.346 112.069 37.1094C112.069 37.0756 112.069 37.0756 112.102 37.0756C112.268 37.0756 112.434 37.0756 112.566 37.0756C112.666 37.0756 112.765 37.1094 112.832 37.2108C112.997 37.3798 112.898 37.7177 112.666 37.7853Z" fill="#C2C2C2"/>
<path fill-rule="evenodd" clip-rule="evenodd" d="M116.273 135.635L114.982 136.403C114.665 136.591 114.305 136.69 113.938 136.69H113.427V138.701H113.938C114.305 138.701 114.665 138.801 114.982 138.989L116.273 139.757V135.635ZM116.225 135.219C116.414 135.107 116.65 135.245 116.65 135.468V139.924C116.65 140.147 116.414 140.285 116.225 140.173L114.792 139.321C114.533 139.167 114.238 139.086 113.938 139.086H113.427C113.219 139.086 113.05 138.914 113.05 138.701V136.69C113.05 136.478 113.219 136.306 113.427 136.306H113.938C114.238 136.306 114.533 136.225 114.792 136.071L116.225 135.219Z" fill="#ADADAD"/>
<path fill-rule="evenodd" clip-rule="evenodd" d="M117.079 136.897C117.079 136.791 117.163 136.705 117.268 136.705C117.811 136.705 118.262 137.144 118.262 137.696C118.262 138.248 117.811 138.687 117.268 138.687C117.163 138.687 117.079 138.601 117.079 138.494C117.079 138.388 117.163 138.302 117.268 138.302C117.614 138.302 117.885 138.026 117.885 137.696C117.885 137.366 117.614 137.09 117.268 137.09C117.163 137.09 117.079 137.004 117.079 136.897Z" fill="#ADADAD"/>
<path fill-rule="evenodd" clip-rule="evenodd" d="M117.079 136.099C117.079 135.993 117.163 135.907 117.268 135.907C118.256 135.907 119.068 136.703 119.068 137.696C119.068 138.689 118.256 139.485 117.268 139.485C117.163 139.485 117.079 139.399 117.079 139.293C117.079 139.187 117.163 139.101 117.268 139.101C118.059 139.101 118.691 138.467 118.691 137.696C118.691 136.925 118.059 136.291 117.268 136.291C117.163 136.291 117.079 136.205 117.079 136.099Z" fill="#ADADAD"/>
<path fill-rule="evenodd" clip-rule="evenodd" d="M140.009 137.455C139.905 137.445 139.829 137.351 139.839 137.245C139.856 137.058 139.902 136.784 140.078 136.544C140.26 136.296 140.56 136.112 141.033 136.067C141.136 136.058 141.228 136.135 141.238 136.241C141.247 136.347 141.171 136.44 141.067 136.45C140.682 136.486 140.487 136.628 140.38 136.774C140.266 136.929 140.229 137.117 140.214 137.281C140.204 137.387 140.112 137.465 140.009 137.455Z" fill="#ADADAD"/>
<path fill-rule="evenodd" clip-rule="evenodd" d="M140.967 135.685C140.136 135.685 139.463 136.371 139.463 137.217C139.463 137.681 139.555 138.049 139.734 138.3C139.758 138.333 139.783 138.367 139.809 138.403C139.921 138.558 140.052 138.739 140.157 138.926C140.29 139.163 140.403 139.447 140.403 139.775V140.186H141.53V139.796C141.53 139.463 141.647 139.176 141.782 138.938C141.882 138.761 142.008 138.585 142.117 138.434C142.149 138.39 142.179 138.347 142.207 138.308C142.383 138.057 142.47 137.688 142.47 137.217C142.47 136.371 141.797 135.685 140.967 135.685ZM139.086 137.217C139.086 136.159 139.928 135.301 140.967 135.301C142.005 135.301 142.847 136.159 142.847 137.217C142.847 137.726 142.754 138.188 142.514 138.531C142.48 138.579 142.446 138.626 142.412 138.674C142.165 139.018 141.907 139.377 141.907 139.796V140.378C141.907 140.485 141.822 140.571 141.718 140.571H140.215C140.111 140.571 140.027 140.485 140.027 140.378V139.775C140.027 139.351 139.763 138.987 139.512 138.64C139.484 138.602 139.456 138.564 139.429 138.526C139.185 138.183 139.086 137.723 139.086 137.217Z" fill="#ADADAD"/>
<path d="M198.794 28.4961L179.042 189.902L114.484 3.89604L198.794 28.4961Z" fill="white"/>
<path d="M126.963 63.3463H123.559C123.514 63.3463 123.471 63.3274 123.439 63.2938C123.407 63.2602 123.389 63.2147 123.389 63.1672C123.389 63.1197 123.407 63.0741 123.439 63.0405C123.471 63.0069 123.514 62.9881 123.559 62.9881H126.963C127.143 62.989 127.315 62.916 127.444 62.7847C127.573 62.6533 127.648 62.474 127.653 62.2852V53.2826C127.653 53.1875 127.635 53.0933 127.6 53.0055C127.565 52.9178 127.514 52.8381 127.45 52.7712C127.386 52.7043 127.31 52.6514 127.227 52.6156C127.143 52.5798 127.054 52.5619 126.963 52.5628H118.446C118.264 52.5628 118.091 52.6386 117.963 52.7736C117.835 52.9086 117.763 53.0917 117.763 53.2826V62.2852C117.763 62.4761 117.835 62.6591 117.963 62.7941C118.091 62.9291 118.264 63.005 118.446 63.005H121.853C121.898 63.005 121.942 63.0238 121.973 63.0574C122.005 63.091 122.023 63.1366 122.023 63.1841C122.023 63.2316 122.005 63.2771 121.973 63.3107C121.942 63.3443 121.898 63.3632 121.853 63.3632H118.446C118.174 63.3632 117.914 63.2497 117.721 63.0476C117.529 62.8456 117.421 62.5714 117.42 62.2852V53.2826C117.421 52.996 117.529 52.7215 117.721 52.5189C117.913 52.3163 118.174 52.2021 118.446 52.2012H126.963C127.235 52.2021 127.495 52.3164 127.687 52.5191C127.878 52.7218 127.986 52.9963 127.986 53.2826V62.2852C127.982 62.5681 127.872 62.838 127.681 63.0365C127.489 63.2351 127.232 63.3463 126.963 63.3463Z" fill="#ADADAD"/>
<path d="M126.964 52.0508L127.081 52.0576C127.351 52.0868 127.604 52.2134 127.796 52.416C128.014 52.6473 128.135 52.9589 128.136 53.2822V62.2871C128.131 62.607 128.007 62.9139 127.789 63.1406C127.57 63.3675 127.274 63.496 126.964 63.4961H123.558C123.471 63.496 123.389 63.4597 123.33 63.3975C123.271 63.3352 123.239 63.2518 123.239 63.167C123.239 63.0823 123.271 62.9997 123.33 62.9375C123.389 62.8751 123.471 62.838 123.558 62.8379H126.964C127.101 62.8386 127.235 62.7829 127.337 62.6797C127.437 62.5771 127.498 62.4358 127.503 62.2852V53.2822C127.503 53.206 127.488 53.1305 127.461 53.0605C127.433 52.9905 127.392 52.9276 127.342 52.875C127.291 52.8225 127.232 52.7816 127.168 52.7539C127.103 52.7262 127.034 52.7122 126.965 52.7129H118.445C118.307 52.713 118.172 52.771 118.071 52.877C117.97 52.9832 117.913 53.1289 117.913 53.2822V62.2852C117.913 62.4385 117.971 62.5841 118.071 62.6904C118.172 62.7964 118.307 62.8544 118.445 62.8545H121.853C121.941 62.8545 122.023 62.8917 122.082 62.9541C122.141 63.0162 122.174 63.099 122.174 63.1836C122.174 63.2684 122.141 63.3518 122.082 63.4141C122.023 63.4764 121.941 63.5127 121.853 63.5127H118.445C118.132 63.5126 117.833 63.3819 117.613 63.1514C117.394 62.9207 117.27 62.6086 117.269 62.2852V53.2822L117.276 53.1611C117.303 52.8817 117.42 52.6182 117.612 52.416C117.832 52.1846 118.131 52.0518 118.445 52.0508H126.964Z" stroke="#C5C5C5" stroke-opacity="0.4" stroke-width="0.3" stroke-miterlimit="10"/>
<path d="M162.817 63.3463H159.406C159.361 63.3463 159.317 63.3274 159.286 63.2938C159.254 63.2602 159.236 63.2147 159.236 63.1672C159.236 63.1197 159.254 63.0741 159.286 63.0405C159.317 63.0069 159.361 62.9881 159.406 62.9881H162.817C162.996 62.9899 163.17 62.9173 163.299 62.7858C163.429 62.6544 163.504 62.4746 163.509 62.2852V53.2826C163.509 53.0917 163.437 52.9086 163.309 52.7736C163.181 52.6386 163.007 52.5628 162.826 52.5628H154.292C154.111 52.5628 153.938 52.6386 153.81 52.7736C153.682 52.9086 153.61 53.0917 153.61 53.2826V62.2852C153.61 62.4761 153.682 62.6591 153.81 62.7941C153.938 62.9291 154.111 63.005 154.292 63.005H157.7C157.745 63.005 157.788 63.0238 157.82 63.0574C157.852 63.091 157.87 63.1366 157.87 63.1841C157.87 63.2316 157.852 63.2771 157.82 63.3107C157.788 63.3443 157.745 63.3632 157.7 63.3632H154.292C154.021 63.3632 153.761 63.2497 153.568 63.0476C153.376 62.8456 153.267 62.5714 153.267 62.2852V53.2826C153.267 52.996 153.376 52.7215 153.568 52.5189C153.76 52.3163 154.021 52.2021 154.292 52.2012H162.817C163.088 52.2021 163.348 52.3164 163.54 52.5191C163.732 52.7218 163.839 52.9963 163.839 53.2826V62.2852C163.835 62.5681 163.725 62.838 163.534 63.0365C163.343 63.2351 163.085 63.3463 162.817 63.3463Z" fill="#ADADAD"/>
<path d="M162.817 52.0508C163.131 52.0519 163.43 52.1846 163.648 52.416C163.867 52.6473 163.989 52.9589 163.989 53.2822V62.2871C163.985 62.6069 163.861 62.9139 163.643 63.1406C163.424 63.3676 163.127 63.4961 162.816 63.4961H159.405C159.318 63.496 159.236 63.4597 159.177 63.3975C159.118 63.3352 159.086 63.2518 159.086 63.167C159.086 63.0823 159.118 62.9997 159.177 62.9375C159.236 62.8751 159.318 62.838 159.405 62.8379H162.818C162.956 62.8392 163.091 62.7839 163.192 62.6807C163.294 62.578 163.354 62.4362 163.359 62.2852V53.2822C163.359 53.1288 163.301 52.9832 163.2 52.877C163.1 52.7709 162.965 52.7129 162.826 52.7129H154.292C154.153 52.713 154.018 52.771 153.918 52.877C153.817 52.9832 153.76 53.1289 153.76 53.2822V62.2852C153.76 62.4385 153.817 62.5841 153.918 62.6904C154.018 62.7964 154.153 62.8544 154.292 62.8545H157.7C157.788 62.8545 157.869 62.8917 157.929 62.9541C157.988 63.0162 158.02 63.0989 158.021 63.1836C158.021 63.2684 157.988 63.3518 157.929 63.4141C157.869 63.4764 157.788 63.5127 157.7 63.5127H154.292C153.979 63.5126 153.68 63.3819 153.46 63.1514C153.241 62.9207 153.117 62.6086 153.116 62.2852V53.2822L153.123 53.1611C153.15 52.8817 153.267 52.6182 153.459 52.416C153.679 52.1846 153.978 52.0518 154.292 52.0508H162.817Z" stroke="#C5C5C5" stroke-opacity="0.4" stroke-width="0.3" stroke-miterlimit="10"/>
<path d="M126.934 119.143H123.527C123.502 119.146 123.477 119.144 123.454 119.137C123.43 119.129 123.408 119.117 123.389 119.1C123.371 119.082 123.356 119.061 123.346 119.038C123.335 119.014 123.33 118.988 123.33 118.962C123.33 118.936 123.335 118.91 123.346 118.886C123.356 118.863 123.371 118.842 123.389 118.824C123.408 118.807 123.43 118.795 123.454 118.787C123.477 118.78 123.502 118.778 123.527 118.781H126.934C127.113 118.778 127.284 118.7 127.409 118.566C127.534 118.431 127.604 118.25 127.604 118.061V109.076C127.604 108.885 127.533 108.702 127.404 108.567C127.276 108.432 127.103 108.356 126.922 108.356H118.41C118.229 108.357 118.056 108.433 117.928 108.568C117.801 108.702 117.728 108.885 117.727 109.076V118.061C117.727 118.252 117.799 118.435 117.927 118.57C118.056 118.705 118.229 118.781 118.41 118.781H121.834C121.876 118.787 121.914 118.809 121.941 118.842C121.969 118.875 121.984 118.918 121.984 118.962C121.984 119.006 121.969 119.049 121.941 119.082C121.914 119.115 121.876 119.137 121.834 119.143H118.41C118.139 119.142 117.879 119.028 117.687 118.825C117.495 118.622 117.388 118.348 117.388 118.061V109.076C117.388 108.79 117.495 108.516 117.687 108.313C117.879 108.111 118.139 107.998 118.41 107.998H126.934C127.206 107.998 127.466 108.111 127.659 108.313C127.851 108.515 127.959 108.789 127.96 109.076V118.061C127.959 118.348 127.851 118.622 127.659 118.825C127.467 119.028 127.206 119.142 126.934 119.143Z" fill="#ADADAD"/>
<path d="M126.935 107.847C127.248 107.847 127.548 107.979 127.768 108.21C127.987 108.44 128.109 108.752 128.11 109.075V118.062C128.109 118.386 127.987 118.697 127.768 118.928C127.575 119.131 127.322 119.258 127.052 119.287L126.935 119.293H123.526V119.292C123.487 119.295 123.446 119.292 123.408 119.28C123.363 119.266 123.323 119.241 123.288 119.21C123.254 119.178 123.226 119.14 123.208 119.097C123.19 119.055 123.18 119.008 123.18 118.962C123.18 118.915 123.19 118.869 123.208 118.827C123.226 118.784 123.254 118.746 123.288 118.714C123.322 118.683 123.363 118.658 123.408 118.644C123.446 118.632 123.487 118.629 123.526 118.631H126.932C127.068 118.629 127.2 118.569 127.299 118.464C127.398 118.357 127.454 118.213 127.454 118.061V109.076C127.454 108.922 127.397 108.776 127.296 108.67C127.195 108.564 127.06 108.506 126.922 108.505H118.411L118.309 108.517C118.207 108.539 118.113 108.591 118.037 108.671C117.936 108.777 117.879 108.923 117.878 109.077V118.061C117.878 118.215 117.935 118.361 118.036 118.467C118.137 118.573 118.272 118.631 118.41 118.631H121.845L121.855 118.632C121.935 118.644 122.006 118.686 122.057 118.747C122.107 118.807 122.134 118.884 122.134 118.962C122.134 119.04 122.107 119.117 122.057 119.177C122.006 119.238 121.935 119.28 121.855 119.292L121.845 119.293H118.41C118.096 119.292 117.797 119.16 117.578 118.928C117.359 118.697 117.237 118.385 117.237 118.061V109.076C117.237 108.753 117.359 108.441 117.578 108.211C117.797 107.98 118.097 107.847 118.41 107.847H126.935Z" stroke="#C5C5C5" stroke-opacity="0.4" stroke-width="0.3" stroke-miterlimit="10"/>
<path d="M162.868 119.143H159.454C159.412 119.137 159.374 119.115 159.347 119.082C159.319 119.049 159.304 119.006 159.304 118.962C159.304 118.918 159.319 118.875 159.347 118.842C159.374 118.809 159.412 118.787 159.454 118.781H162.868C163.049 118.781 163.223 118.705 163.351 118.57C163.479 118.435 163.551 118.252 163.551 118.061V109.076C163.55 108.885 163.478 108.702 163.35 108.568C163.222 108.433 163.049 108.357 162.868 108.356H154.341C154.16 108.357 153.987 108.433 153.86 108.568C153.732 108.703 153.661 108.885 153.661 109.076V118.061C153.661 118.156 153.678 118.249 153.712 118.337C153.746 118.424 153.796 118.503 153.859 118.57C153.922 118.637 153.997 118.69 154.08 118.726C154.162 118.763 154.251 118.781 154.341 118.781H157.739C157.78 118.787 157.818 118.809 157.846 118.842C157.873 118.875 157.888 118.918 157.888 118.962C157.888 119.006 157.873 119.049 157.846 119.082C157.818 119.115 157.78 119.137 157.739 119.143H154.337C154.066 119.141 153.806 119.026 153.615 118.824C153.423 118.621 153.316 118.347 153.315 118.061V109.076C153.316 108.79 153.424 108.516 153.615 108.314C153.807 108.112 154.066 107.999 154.337 107.998H162.868C163.139 107.998 163.399 108.111 163.591 108.313C163.783 108.516 163.891 108.79 163.891 109.076V118.061C163.891 118.348 163.783 118.622 163.591 118.825C163.4 119.028 163.139 119.142 162.868 119.143Z" fill="#ADADAD"/>
<path d="M162.867 107.847C163.181 107.847 163.48 107.979 163.699 108.211C163.918 108.441 164.04 108.753 164.04 109.076V118.061C164.04 118.385 163.919 118.697 163.7 118.928C163.481 119.16 163.182 119.292 162.868 119.293H159.443L159.432 119.292C159.353 119.28 159.282 119.238 159.232 119.177C159.181 119.117 159.155 119.04 159.155 118.962C159.155 118.884 159.182 118.807 159.232 118.747C159.282 118.686 159.353 118.644 159.432 118.632L159.443 118.631H162.867C163.006 118.631 163.141 118.573 163.241 118.467C163.342 118.361 163.401 118.215 163.401 118.061V109.077L163.39 108.964C163.369 108.853 163.316 108.75 163.24 108.671C163.165 108.591 163.071 108.539 162.97 108.517L162.867 108.505H154.341C154.203 108.506 154.069 108.565 153.969 108.671C153.869 108.777 153.811 108.923 153.811 109.076V118.062C153.81 118.138 153.825 118.212 153.852 118.282C153.879 118.351 153.918 118.415 153.968 118.467C154.018 118.52 154.076 118.561 154.14 118.589C154.204 118.616 154.272 118.631 154.34 118.631H157.749L157.76 118.632C157.84 118.644 157.911 118.686 157.961 118.747C158.011 118.807 158.038 118.884 158.038 118.962C158.038 119.04 158.011 119.117 157.961 119.177C157.911 119.238 157.84 119.28 157.76 119.292L157.749 119.293H154.336C154.023 119.29 153.725 119.158 153.506 118.927C153.288 118.696 153.165 118.385 153.164 118.062V109.075C153.165 108.752 153.288 108.442 153.506 108.212C153.725 107.981 154.024 107.848 154.337 107.847H162.867Z" stroke="#C5C5C5" stroke-opacity="0.4" stroke-width="0.3" stroke-miterlimit="10"/>
<path d="M136.67 96.7208C136.694 96.7209 136.718 96.726 136.74 96.7359C136.762 96.7458 136.782 96.7602 136.799 96.7783L140.402 100.577C140.469 100.646 140.559 100.685 140.654 100.685C140.748 100.685 140.838 100.646 140.905 100.577L144.432 96.8594C144.466 96.8237 144.513 96.8037 144.561 96.8037C144.61 96.8037 144.656 96.8237 144.691 96.8594C144.725 96.8954 144.744 96.944 144.744 96.9946C144.744 97.0451 144.725 97.0937 144.691 97.1297L141.165 100.847C141.098 100.918 141.019 100.974 140.932 101.012C140.845 101.051 140.751 101.071 140.657 101.071C140.562 101.071 140.469 101.051 140.381 101.012C140.294 100.974 140.215 100.918 140.149 100.847L136.545 97.0486C136.512 97.0126 136.493 96.964 136.493 96.9135C136.493 96.8629 136.512 96.8143 136.545 96.7783C136.579 96.7431 136.623 96.7226 136.67 96.7208Z" fill="#ADADAD"/>
<path d="M136.671 96.5704C136.716 96.5706 136.76 96.5804 136.801 96.5988C136.842 96.6168 136.877 96.6438 136.907 96.6759L140.509 100.473L140.542 100.5C140.575 100.523 140.615 100.535 140.654 100.535C140.706 100.535 140.758 100.514 140.797 100.473L144.323 96.756L144.324 96.755C144.386 96.6912 144.471 96.6535 144.561 96.6534C144.629 96.6534 144.693 96.6747 144.748 96.712L144.798 96.755L144.8 96.757L144.84 96.8087C144.875 96.8641 144.894 96.9286 144.894 96.9943C144.894 97.0599 144.875 97.1244 144.84 97.1798L144.8 97.2325L141.274 100.95L141.273 100.949C141.193 101.034 141.099 101.103 140.993 101.15C140.887 101.196 140.772 101.221 140.657 101.221C140.541 101.221 140.427 101.196 140.321 101.15C140.215 101.103 140.12 101.035 140.04 100.949V100.95L136.436 97.1515C136.376 97.0869 136.342 97.0007 136.342 96.9132C136.342 96.8258 136.376 96.7404 136.436 96.6759V96.6749C136.496 96.6122 136.577 96.5747 136.665 96.5714L136.671 96.5704Z" stroke="#C5C5C5" stroke-opacity="0.4" stroke-width="0.3"/>
<path d="M144.566 74.4268C144.542 74.4267 144.519 74.4215 144.497 74.4117C144.475 74.4018 144.455 74.3874 144.438 74.3693L140.835 70.5709C140.768 70.5014 140.677 70.4624 140.583 70.4624C140.489 70.4624 140.399 70.5014 140.331 70.5709L136.805 74.2882C136.77 74.3239 136.724 74.3439 136.675 74.3439C136.627 74.3439 136.58 74.3239 136.545 74.2882C136.512 74.2522 136.493 74.2036 136.493 74.153C136.493 74.1024 136.512 74.0539 136.545 74.0179L140.072 70.3006C140.138 70.2298 140.217 70.1735 140.305 70.1352C140.392 70.0968 140.485 70.0771 140.58 70.0771C140.674 70.0771 140.768 70.0968 140.855 70.1352C140.942 70.1735 141.021 70.2298 141.088 70.3006L144.691 74.099C144.725 74.135 144.744 74.1835 144.744 74.2341C144.744 74.2847 144.725 74.3333 144.691 74.3693C144.658 74.4045 144.613 74.425 144.566 74.4268Z" fill="#ADADAD"/>
<path d="M144.566 74.5771C144.521 74.577 144.476 74.5672 144.435 74.5488C144.395 74.5308 144.36 74.5038 144.33 74.4717L140.727 70.6748L140.695 70.6475C140.661 70.6241 140.622 70.6123 140.583 70.6123C140.531 70.6124 140.479 70.6338 140.439 70.6748L136.914 74.3916L136.913 74.3926C136.851 74.4564 136.766 74.4941 136.675 74.4941C136.608 74.4941 136.543 74.4728 136.489 74.4355L136.438 74.3926L136.436 74.3906L136.396 74.3389C136.361 74.2835 136.342 74.219 136.342 74.1533C136.342 74.0877 136.361 74.0232 136.396 73.9678L136.436 73.915L139.963 70.1973L139.963 70.1982C140.043 70.1133 140.138 70.0446 140.244 69.998C140.35 69.9514 140.464 69.9268 140.58 69.9268C140.695 69.9268 140.81 69.9514 140.916 69.998C141.022 70.0447 141.117 70.1131 141.197 70.1982L141.197 70.1973L144.8 73.9961C144.861 74.0607 144.894 74.1468 144.894 74.2344C144.894 74.3218 144.861 74.4071 144.8 74.4717L144.8 74.4727C144.741 74.5354 144.659 74.5729 144.572 74.5762L144.566 74.5771Z" stroke="#C5C5C5" stroke-opacity="0.4" stroke-width="0.3"/>
<path d="M140.594 86.0183C140.817 86.0183 140.998 85.8277 140.998 85.5925C140.998 85.3574 140.817 85.1667 140.594 85.1667C140.371 85.1667 140.19 85.3574 140.19 85.5925C140.19 85.8277 140.371 86.0183 140.594 86.0183Z" fill="#ADADAD"/>
<path fill-rule="evenodd" clip-rule="evenodd" d="M162.872 136.259C162.872 136.153 162.957 136.067 163.061 136.067H167.761C167.865 136.067 167.95 136.153 167.95 136.259C167.95 136.365 167.865 136.451 167.761 136.451H163.061C162.957 136.451 162.872 136.365 162.872 136.259Z" fill="#ADADAD"/>
<path fill-rule="evenodd" clip-rule="evenodd" d="M162.872 135.301C162.872 135.194 162.957 135.108 163.061 135.108H167.761C167.865 135.108 167.95 135.194 167.95 135.301C167.95 135.407 167.865 135.493 167.761 135.493H163.061C162.957 135.493 162.872 135.407 162.872 135.301Z" fill="#ADADAD"/>
<path fill-rule="evenodd" clip-rule="evenodd" d="M162.872 137.217C162.872 137.111 162.957 137.025 163.061 137.025H167.761C167.865 137.025 167.95 137.111 167.95 137.217C167.95 137.323 167.865 137.409 167.761 137.409H163.061C162.957 137.409 162.872 137.323 162.872 137.217Z" fill="#ADADAD"/>
<path fill-rule="evenodd" clip-rule="evenodd" d="M162.872 138.175C162.872 138.069 162.957 137.983 163.061 137.983H167.761C167.865 137.983 167.95 138.069 167.95 138.175C167.95 138.281 167.865 138.367 167.761 138.367H163.061C162.957 138.367 162.872 138.281 162.872 138.175Z" fill="#ADADAD"/>
<path fill-rule="evenodd" clip-rule="evenodd" d="M162.872 139.133C162.872 139.027 162.957 138.941 163.061 138.941H167.752C167.861 138.941 167.95 139.031 167.95 139.143V140.091C167.95 140.198 167.865 140.284 167.761 140.284C167.657 140.284 167.573 140.198 167.573 140.091V139.326H163.061C162.957 139.326 162.872 139.239 162.872 139.133Z" fill="#ADADAD"/>
</g>
</g>
<defs>
<filter id="filter0_d_1098_12002" x="94.9583" y="29.8572" width="85.0833" height="127.774" filterUnits="userSpaceOnUse" color-interpolation-filters="sRGB">
<feFlood flood-opacity="0" result="BackgroundImageFix"/>
<feColorMatrix in="SourceAlpha" type="matrix" values="0 0 0 0 0 0 0 0 0 0 0 0 0 0 0 0 0 0 127 0" result="hardAlpha"/>
<feOffset dx="-3" dy="3"/>
<feGaussianBlur stdDeviation="2"/>
<feComposite in2="hardAlpha" operator="out"/>
<feColorMatrix type="matrix" values="0 0 0 0 0 0 0 0 0 0 0 0 0 0 0 0 0 0 0.25 0"/>
<feBlend mode="normal" in2="BackgroundImageFix" result="effect1_dropShadow_1098_12002"/>
<feBlend mode="normal" in="SourceGraphic" in2="effect1_dropShadow_1098_12002" result="shape"/>
</filter>
<clipPath id="clip0_1098_12002">
<rect width="77.0833" height="119.774" fill="white" transform="translate(101.958 30.8572)"/>
</clipPath>
</defs>
</svg>
