<svg width="99" height="30" viewBox="0 0 99 30" fill="none" xmlns="http://www.w3.org/2000/svg">
<path d="M0 24.0718C0.215921 23.7782 0.35699 23.4413 0.673674 23.2139C1.4366 22.6727 2.50181 22.8454 3.00562 23.6285C3.29064 24.0747 3.48641 24.5699 3.70233 25.0507C4.16008 26.0612 4.85679 26.8097 5.96806 27.0631C7.29814 27.3654 8.59367 27.2761 9.77979 26.5305C10.8335 25.8683 11.2337 24.6361 10.7442 23.5939C10.4045 22.8742 9.77691 22.4827 9.05718 22.2379C7.95166 21.8637 6.80584 21.6276 5.68017 21.3196C4.50556 20.9971 3.35686 20.6228 2.32619 19.9348C-0.486543 18.0606 -0.224558 13.7681 2.54211 12.1012C3.6102 11.4563 4.76466 11.1367 5.98534 11.0072C7.10813 10.8862 8.22804 10.9121 9.33643 11.1309C10.6521 11.3929 11.8325 11.9313 12.7624 12.9245C13.4274 13.6356 13.8621 14.4648 13.8535 15.4695C13.8477 16.3275 13.2604 17.0328 12.4342 17.1739C11.9476 17.2574 11.1847 17.0789 10.8882 16.5031C10.6147 15.9733 10.3066 15.4551 9.96405 14.9628C9.46023 14.2373 8.81247 13.7853 7.90848 13.6788C6.95554 13.5665 6.03428 13.6011 5.14756 13.9984C4.76466 14.1711 4.44222 14.4216 4.19463 14.7584C3.59581 15.5732 3.78006 16.552 4.61496 17.1624C5.23681 17.6172 5.96231 17.8072 6.68492 18.0059C7.9459 18.3542 9.22991 18.6249 10.4707 19.0538C11.3776 19.3676 12.2528 19.739 13.0071 20.3493C13.8881 21.0633 14.4091 21.9731 14.5819 23.0901C14.7719 24.3252 14.6423 25.5142 14.0867 26.6399C13.4792 27.872 12.4774 28.6868 11.2481 29.2396C10.2491 29.6915 9.18961 29.8816 8.10137 29.9478C6.90948 30.0197 5.72911 29.9593 4.57465 29.6541C2.4068 29.0812 0.892474 27.7799 0.161221 25.6293C0.0950053 25.4307 0.0547 25.2234 0 25.019C0 24.7023 0 24.3885 0 24.0718Z" fill="white"/>
<path d="M55.3309 20.439C55.3309 17.9919 55.3309 15.5419 55.3309 13.0948C55.3309 12.7609 55.3799 12.4355 55.4864 12.1189C55.8146 11.1487 56.6293 10.8377 57.5161 10.9644C58.4719 11.0997 59.0736 11.8511 59.0764 12.8645C59.0822 14.6264 59.0822 16.3855 59.0764 18.1474C59.0764 18.3633 59.1139 18.441 59.3557 18.441C61.8546 18.4295 64.3536 18.4324 66.8525 18.441C67.054 18.441 67.1001 18.3835 67.1001 18.1906C67.0943 16.5323 67.1001 14.874 67.1001 13.2157C67.1001 12.8588 67.1404 12.5046 67.2498 12.1649C67.578 11.1343 68.4647 10.832 69.2996 10.9702C70.2698 11.1285 70.8082 11.7993 70.8485 12.8559C70.8715 13.4403 70.8571 14.0247 70.8571 14.6092C70.8571 16.1897 70.8398 17.7674 70.86 19.3479C70.8945 22.0714 70.8686 24.7978 70.8744 27.5212C70.8744 28.0193 70.8542 28.5145 70.6297 28.978C70.2554 29.7467 69.5731 30.0778 68.5914 29.9511C67.8975 29.8618 67.3333 29.2918 67.1893 28.5346C67.1001 28.074 67.0972 27.6105 67.0972 27.1441C67.0972 25.3678 67.0943 23.5915 67.1001 21.8123C67.1001 21.6136 67.0627 21.5417 66.8439 21.5417C64.3363 21.5503 61.8316 21.5474 59.324 21.5417C59.1196 21.5417 59.0793 21.6108 59.0793 21.7979C59.0851 23.8679 59.0937 25.9349 59.0793 28.0049C59.0736 28.7448 58.8202 29.4098 58.1149 29.7582C57.0468 30.2822 55.5987 29.9511 55.377 28.3043C55.3482 28.0942 55.3396 27.8811 55.3396 27.6681C55.3396 25.2584 55.3396 22.8516 55.3396 20.4419L55.3309 20.439Z" fill="white"/>
<path d="M26.6649 29.9709C26.1265 29.994 25.5881 29.9767 25.0527 29.9565C23.8262 29.8356 22.6343 29.5852 21.5231 29.0324C19.5452 28.0478 18.267 26.4586 17.5645 24.3886C17.0924 22.9981 16.9167 21.5644 16.9484 20.1048C16.9858 18.3342 17.3227 16.6328 18.195 15.0608C19.2688 13.1291 20.8839 11.9026 23.0057 11.3182C23.1497 11.2779 23.2965 11.2405 23.4376 11.1973C23.5959 11.1512 23.6449 11.203 23.6362 11.3671C23.593 12.1877 23.5182 13.0082 23.5412 13.8258C23.5556 14.3382 23.3857 14.6204 22.9625 14.9025C22.119 15.461 21.6008 16.3017 21.2784 17.246C20.5327 19.4426 20.5183 21.6508 21.3618 23.8215C21.9319 25.284 22.9568 26.3262 24.4999 26.7811C26.5987 27.3971 29.0342 26.6429 30.2204 24.5499C30.871 23.4012 31.133 22.1575 31.1704 20.8562C31.205 19.5693 31.1042 18.3025 30.6004 17.0963C30.2549 16.2671 29.777 15.533 29.0573 14.9774C28.8903 14.8478 28.8298 14.6981 28.8356 14.4908C28.8673 13.5264 28.7607 12.5677 28.7262 11.6061C28.7147 11.2981 28.7377 11.2693 29.0342 11.3556C31.9218 12.2193 33.7471 14.1309 34.5446 17.0157C35.2182 19.4455 35.1981 21.8897 34.4294 24.2908C33.7039 26.5536 32.2903 28.258 30.0678 29.2166C29.0285 29.6658 27.9316 29.8817 26.8059 29.9565C26.7599 29.9594 26.7109 29.9681 26.6649 29.9738V29.9709Z" fill="white"/>
<path d="M83.7926 29.9596C83.5075 30.0172 83.2225 30.0114 82.9375 29.9538C82.3473 29.7322 81.8464 29.4068 81.6449 28.7677C81.4779 28.238 81.5844 27.7169 81.7773 27.2188C82.5287 25.287 83.2887 23.3582 84.0488 21.4293C84.9758 19.0743 85.9028 16.7193 86.8414 14.3701C87.135 13.6302 87.374 12.8644 87.7828 12.1763C88.7962 10.4605 91.3642 10.4979 92.3402 12.2368C92.8353 13.1206 93.1607 14.0793 93.5436 15.015C94.5915 17.5859 95.6279 20.1568 96.6672 22.7334C97.266 24.219 97.8649 25.7016 98.4407 27.1958C98.6134 27.642 98.7573 28.1113 98.6307 28.6036C98.4263 29.4068 97.7152 29.9481 96.8831 29.9711C96.1375 29.9913 95.6222 29.689 95.3055 29.0009C94.7844 27.8695 94.3007 26.7208 93.8862 25.5462C93.8199 25.359 93.7221 25.287 93.5234 25.287C91.2145 25.2928 88.9056 25.2928 86.5967 25.287C86.3836 25.287 86.2915 25.3734 86.2224 25.5634C85.8136 26.7064 85.3904 27.8436 84.8894 28.9491C84.6649 29.4414 84.3223 29.7984 83.7954 29.9596H83.7926ZM90.037 15.0178C89.9967 15.1042 89.965 15.1589 89.942 15.2165C89.0726 17.4995 88.2521 19.7998 87.4747 22.1173C87.3682 22.4311 87.3769 22.4398 87.7079 22.4426C89.3057 22.4628 90.9007 22.4801 92.4985 22.4167C92.7116 22.4081 92.7259 22.3505 92.6597 22.1691C92.035 20.4763 91.4189 18.7806 90.7999 17.0849C90.5523 16.4055 90.299 15.7261 90.037 15.015V15.0178Z" fill="white"/>
<path d="M38.1634 20.6346C38.1634 18.2508 38.1634 15.8671 38.1634 13.4833C38.1634 13.2386 38.1778 12.9968 38.2325 12.7549C38.4283 11.874 38.8687 11.4594 39.7641 11.3183C40.1153 11.2636 40.4723 11.2521 40.8264 11.2492C42.312 11.2406 43.7975 11.232 45.2859 11.2492C46.3655 11.2636 47.448 11.3039 48.5075 11.5573C50.3385 11.9978 51.801 13.5697 52.0946 15.4266C52.2616 16.4832 52.2703 17.5253 52.0083 18.5704C51.6052 20.1769 50.6149 21.2593 49.0977 21.8812C48.1361 22.2727 47.1342 22.4455 46.0949 22.4743C44.7677 22.5088 43.4405 22.4944 42.1133 22.5088C41.9291 22.5088 41.8916 22.5693 41.8945 22.7391C41.8974 24.4924 41.8945 26.2428 41.8888 27.9961C41.8888 28.6525 41.6556 29.2081 41.1316 29.6313C40.3399 30.2705 38.6298 30.0805 38.2757 28.6986C38.2008 28.4135 38.1605 28.1256 38.1605 27.8349C38.1605 25.4338 38.1605 23.0357 38.1605 20.6346H38.1634ZM41.906 16.8891C41.906 17.7269 41.9147 18.5618 41.9003 19.3995C41.8945 19.6299 41.978 19.673 42.1824 19.6702C42.9972 19.6558 43.8119 19.6673 44.6238 19.65C45.2312 19.6356 45.8387 19.6241 46.4289 19.4456C47.0622 19.2527 47.6467 18.9821 48.0065 18.3977C48.4931 17.6088 48.5161 16.7595 48.2628 15.8901C48.0353 15.1099 47.5229 14.6061 46.7456 14.37C46.0891 14.1714 45.4184 14.0994 44.736 14.0965C43.8666 14.0965 42.9972 14.0965 42.1277 14.0936C41.9636 14.0936 41.9003 14.1512 41.9032 14.3326C41.9147 15.1848 41.9089 16.0369 41.9089 16.892L41.906 16.8891Z" fill="white"/>
<path d="M74.9736 20.4708C74.9736 18.0554 74.9736 15.6371 74.9736 13.2216C74.9736 12.784 75.0369 12.3551 75.2097 11.9491C75.5263 11.2035 76.3267 10.8062 77.1645 10.9616C78.1404 11.1459 78.6615 11.7793 78.7191 12.8675C78.7364 13.2072 78.745 13.5469 78.745 13.8838C78.745 18.4556 78.745 23.0273 78.745 27.602C78.745 28.0856 78.7076 28.5664 78.4801 29.0069C78.1404 29.6691 77.4351 30.0491 76.6981 29.9685C75.8718 29.8792 75.3133 29.4301 75.0974 28.6729C75.0024 28.3447 74.9707 28.0079 74.9707 27.6682C74.9707 25.2671 74.9707 22.8661 74.9707 20.4651L74.9736 20.4708Z" fill="white"/>
<path d="M24.8106 9.95927C24.7761 9.44106 24.753 9.08119 24.8596 8.7242C25.1763 7.66475 25.8067 7.51216 26.6157 7.64747C27.3585 7.77127 27.7587 8.30963 27.8047 9.14165C27.8393 9.77502 27.7759 10.4026 27.7472 11.0331C27.7212 11.6233 27.6925 12.2135 27.6694 12.8037C27.6234 13.9466 27.5744 15.0896 27.4247 16.2239C27.3729 16.6212 27.2174 16.9839 26.967 17.3006C26.61 17.7526 25.9996 17.7382 25.6542 17.2747C25.3144 16.8169 25.1993 16.2757 25.0956 15.7316C24.9632 15.0233 24.9661 14.3036 24.9459 13.5868C24.9085 12.3258 24.8509 11.0648 24.8106 9.95927Z" fill="white"/>
<path d="M76.5312 0.00110164C78.604 -0.0104142 80.3976 0.513555 81.9811 1.69968C82.3294 1.96167 82.6519 2.25244 82.9628 2.55761C83.242 2.82823 83.2679 3.27735 83.0319 3.56812C82.7872 3.86753 82.3611 3.93087 82.03 3.70343C81.9148 3.62282 81.8141 3.51918 81.7133 3.4213C80.4955 2.23229 79.0186 1.64498 77.3402 1.50391C75.253 1.33118 73.4075 1.90409 71.8126 3.26583C71.4527 3.57388 71.0094 3.55085 70.71 3.22553C70.4393 2.929 70.4797 2.45685 70.8222 2.14592C71.7464 1.31102 72.8231 0.74675 74.0064 0.381123C74.8643 0.113381 75.7453 -0.0132931 76.537 0.00110164H76.5312Z" fill="white"/>
<path d="M76.3502 3.37771C78.0228 3.38059 79.3472 3.83259 80.4268 4.90644C80.6772 5.15403 80.7694 5.4448 80.6369 5.79028C80.5275 6.07529 80.3087 6.20484 80.0237 6.23651C79.7617 6.2653 79.5429 6.15302 79.3673 5.96877C78.1898 4.72794 76.1227 4.5696 74.7149 5.31237C74.4645 5.4448 74.2255 5.60027 74.0125 5.79028C73.6727 6.08969 73.1632 6.1012 72.8983 5.81619C72.5903 5.48223 72.6421 4.99569 73.0192 4.66173C73.929 3.8585 75.2389 3.38059 76.3502 3.37771Z" fill="white"/>
<path d="M77.147 6.96222C77.8523 6.9507 78.4684 7.2789 79.001 7.78272C79.3148 8.07925 79.3264 8.55428 79.0529 8.84793C78.7937 9.12719 78.3187 9.14734 78.002 8.87096C77.5299 8.46215 77.0059 8.31533 76.4013 8.51685C76.2171 8.57731 76.0645 8.68959 75.9119 8.80187C75.5492 9.06673 75.0943 9.02355 74.8266 8.69823C74.5761 8.39306 74.6365 7.93818 74.9763 7.64453C75.5837 7.11768 76.3236 6.98813 77.147 6.96222Z" fill="white"/>
</svg>
