<svg width="18" height="19" viewBox="0 0 18 19" fill="none" xmlns="http://www.w3.org/2000/svg">
<path d="M10.127 0C11.077 1.88094e-05 11.9132 0.61839 12.1797 1.51758L12.6348 3.05469H17.1826C17.5492 3.05469 17.8466 3.34755 17.8467 3.70898C17.8467 4.07045 17.5492 4.36328 17.1826 4.36328H16.3574L14.3184 16.6768C14.1261 17.8373 13.1095 18.6894 11.917 18.6895H5.70703C4.51458 18.6893 3.49793 17.8373 3.30566 16.6768L1.26758 4.36328H0.664062C0.297504 4.36328 0 4.07045 0 3.70898C3.99723e-05 3.34755 0.297529 3.05469 0.664062 3.05469H5.07324C5.23043 2.5734 5.42857 1.9676 5.59375 1.46191C5.87858 0.590402 6.70165 0 7.62988 0H10.127ZM4.61523 16.4658C4.7026 16.9933 5.16508 17.3807 5.70703 17.3809H11.917C12.459 17.3808 12.9214 16.9933 13.0088 16.4658L15.0127 4.36328H2.61133L4.61523 16.4658ZM6.93164 6.61816C7.2982 6.61816 7.5957 6.91099 7.5957 7.27246V14.6172C7.5957 14.9787 7.2982 15.2715 6.93164 15.2715C6.56529 15.2712 6.26855 14.9785 6.26855 14.6172V7.27246C6.26855 6.91114 6.56529 6.6184 6.93164 6.61816ZM10.6191 6.61816C10.9857 6.61816 11.2832 6.91099 11.2832 7.27246V14.6172C11.2832 14.9787 10.9857 15.2715 10.6191 15.2715C10.2528 15.2713 9.95605 14.9785 9.95605 14.6172V7.27246C9.95605 6.91113 10.2528 6.61839 10.6191 6.61816ZM7.62988 1.30957C7.27764 1.30957 6.96545 1.53305 6.85742 1.86328C6.73567 2.236 6.59563 2.66319 6.46777 3.05469H11.252L10.9053 1.88477C10.8041 1.54377 10.4873 1.30959 10.127 1.30957H7.62988Z" fill="#CF3636" fill-opacity="0.92"/>
</svg>
