<svg width="38" height="31" viewBox="0 0 38 31" fill="none" xmlns="http://www.w3.org/2000/svg">
<path d="M0 21.1334C0.362335 20.6609 0.59906 20.1191 1.13048 19.7532C2.41073 18.8824 4.19825 19.1603 5.0437 20.4201C5.52198 21.138 5.8505 21.9346 6.21283 22.7081C6.98098 24.3338 8.15012 25.538 10.0149 25.9455C12.2469 26.4318 14.4209 26.2883 16.4114 25.0887C18.1795 24.0234 18.8511 22.0411 18.0298 20.3645C17.4597 19.2066 16.4065 18.5767 15.1987 18.1831C13.3436 17.581 11.4208 17.2012 9.53182 16.7056C7.56072 16.1869 5.6331 15.5848 3.90355 14.4778C-0.816461 11.4627 -0.376828 4.55707 4.26589 1.8754C6.05824 0.837939 7.99552 0.323838 10.0439 0.115419C11.9281 -0.0791059 13.8074 -0.0374219 15.6674 0.314575C17.8752 0.736046 19.8559 1.60214 21.4164 3.20003C22.5324 4.34402 23.2619 5.6779 23.2474 7.29431C23.2377 8.67451 22.2522 9.80924 20.8657 10.0362C20.0492 10.1705 18.7689 9.88334 18.2713 8.95704C17.8124 8.10483 17.2954 7.27115 16.7205 6.47916C15.8751 5.31201 14.7881 4.58486 13.2711 4.41349C11.672 4.23286 10.126 4.28844 8.63806 4.92759C7.99552 5.20548 7.45443 5.60843 7.03896 6.15032C6.03408 7.46105 6.34328 9.03577 7.7443 10.0177C8.78783 10.7494 10.0053 11.0551 11.2179 11.3747C13.3339 11.9351 15.4886 12.3705 17.5708 13.0606C19.0926 13.5654 20.5613 14.1629 21.827 15.1448C23.3054 16.2934 24.1798 17.757 24.4697 19.554C24.7885 21.5409 24.5711 23.4538 23.6387 25.2647C22.6194 27.247 20.9381 28.5577 18.8752 29.447C17.1988 30.1741 15.421 30.4798 13.5948 30.5863C11.5947 30.7021 9.61395 30.6049 7.67667 30.1139C4.03883 29.1922 1.49765 27.0988 0.270543 23.639C0.159427 23.3194 0.0917915 22.986 0 22.6571C0 22.1477 0 21.6428 0 21.1334Z" fill="#0A82FA"/>
<path d="M29.2585 20.9482C29.2585 18.4886 29.2585 16.026 29.2585 13.5664C29.2585 13.1208 29.3228 12.684 29.498 12.2707C29.8191 11.5114 30.6308 11.1068 31.4805 11.2651C32.4703 11.4528 32.9988 12.0977 33.0572 13.2058C33.0747 13.5518 33.0834 13.8977 33.0834 14.2407C33.0834 18.8961 33.0834 23.5514 33.0834 28.2097C33.0834 28.7022 33.0455 29.1918 32.8148 29.6404C32.4703 30.3146 31.7549 30.7016 31.0075 30.6195C30.1695 30.5286 29.6031 30.0713 29.3841 29.3003C29.2877 28.9661 29.2556 28.6231 29.2556 28.2772C29.2556 25.8322 29.2556 23.3873 29.2556 20.9423L29.2585 20.9482Z" fill="#0A82FA"/>
<path d="M30.9507 0.00109834C33.1444 -0.0103829 35.0425 0.512015 36.7182 1.69458C37.0869 1.95578 37.4281 2.24569 37.7571 2.54994C38.0527 2.81975 38.0801 3.26752 37.8303 3.55742C37.5713 3.85593 37.1204 3.91908 36.77 3.69232C36.6481 3.61196 36.5415 3.50862 36.4349 3.41103C35.1461 2.22559 33.5831 1.64005 31.8069 1.4994C29.598 1.32718 27.645 1.89838 25.9571 3.25604C25.5763 3.56316 25.1071 3.5402 24.7903 3.21585C24.5039 2.92021 24.5465 2.44948 24.9091 2.13948C25.8871 1.30709 27.0266 0.74451 28.2788 0.37998C29.1867 0.113041 30.119 -0.0132532 30.9568 0.00109834H30.9507Z" fill="#0A82FA"/>
<path d="M30.9564 3.31827C32.6144 3.32135 33.927 3.80488 34.9971 4.95364C35.2453 5.21851 35.3367 5.52957 35.2054 5.89914C35.097 6.20405 34.8801 6.34264 34.5976 6.37651C34.3379 6.40731 34.121 6.2872 33.947 6.09009C32.7799 4.7627 30.731 4.59331 29.3356 5.3879C29.0873 5.52957 28.8505 5.69588 28.6393 5.89914C28.3026 6.21944 27.7975 6.23176 27.535 5.92686C27.2296 5.56961 27.281 5.04912 27.6548 4.69186C28.5566 3.8326 29.8549 3.32135 30.9564 3.31827Z" fill="#0A82FA"/>
<path d="M31.501 6.89214C32.2176 6.87957 32.8436 7.23755 33.3848 7.78708C33.7036 8.11051 33.7153 8.62863 33.4374 8.94893C33.1742 9.25352 32.6915 9.2755 32.3697 8.97405C31.89 8.52815 31.3577 8.368 30.7434 8.58781C30.5562 8.65375 30.4011 8.77622 30.2461 8.89868C29.8775 9.18758 29.4154 9.14047 29.1433 8.78564C28.8889 8.45278 28.9503 7.95664 29.2955 7.63635C29.9127 7.0617 30.6644 6.9204 31.501 6.89214Z" fill="#0A82FA"/>
</svg>
